<?xml version="1.0" encoding="utf-8"?>
<!-- Generator: Adobe Illustrator 17.0.0, SVG Export Plug-In . SVG Version: 6.00 Build 0)  -->
<!DOCTYPE svg PUBLIC "-//W3C//DTD SVG 1.1//EN" "http://www.w3.org/Graphics/SVG/1.1/DTD/svg11.dtd">
<svg version="1.1" id="Layer_1" xmlns="http://www.w3.org/2000/svg" xmlns:xlink="http://www.w3.org/1999/xlink" x="0px" y="0px"
	 width="35px" height="38px" viewBox="86.667 45.974 35 38" enable-background="new 86.667 45.974 35 38" xml:space="preserve">
<g>
	<g>
		<path fill="#8C55E9" d="M116.949,46.295H91.385c-1.823,0-3.301,1.478-3.301,3.301v30.756c0,1.823,1.478,3.301,3.301,3.301h25.564
			c1.823,0,3.301-1.478,3.301-3.301V49.596C120.25,47.773,118.772,46.295,116.949,46.295z M104.129,49.004
			c4.503,0,8.164,4.916,8.164,10.744s-3.662,10.744-8.164,10.744s-8.301-4.916-8.301-10.744S99.626,49.004,104.129,49.004z
			 M116.417,79.04c0,0.839-0.911,1.518-2.037,1.518H93.876c-1.126,0-2.037-0.679-2.037-1.518v-1.518
			c0-2.341,1.224-4.456,3.179-6.071c2.238,1.849,5.58,3.035,9.178,3.035c3.598,0,6.804-1.186,9.042-3.035
			c1.954,1.615,3.179,3.73,3.179,6.071V79.04z"/>
		<g>
			<path fill="#8C55E9" d="M107.799,59.831c-0.002-0.173-0.016-0.346-0.046-0.512c0.244-0.196,0.733-0.588,0.733-0.588l0.027-0.82
				l-1.127-1.404l-0.822-0.027c0,0-0.4,0.321-0.599,0.482c-0.208-0.109-0.428-0.2-0.659-0.271c-0.011-0.232-0.035-0.696-0.035-0.696
				l-0.562-0.598l-1.797,0.087l-0.599,0.561c0,0,0.03,0.611,0.043,0.916c-0.178,0.094-0.348,0.202-0.507,0.322
				c-0.248-0.124-0.746-0.371-0.746-0.371l-0.801,0.183l-0.803,1.613l-0.03,0.11l0.213,0.69c0,0,0.577,0.286,0.866,0.43
				c0.007,0.194,0.03,0.383,0.072,0.566c-0.23,0.181-0.689,0.548-0.689,0.548l-0.027,0.819l1.119,1.411c0,0,0.673,0.102,0.71,0.083
				c0.037-0.019,0.111-0.056,0.111-0.056s0.437-0.346,0.655-0.52c0.176,0.087,0.361,0.16,0.554,0.218
				c0.014,0.242,0.042,0.727,0.042,0.727l0.562,0.598l1.795-0.105l0.599-0.56c0,0-0.036-0.624-0.054-0.936
				c0.148-0.079,0.293-0.167,0.428-0.264c0.228,0.142,0.686,0.427,0.686,0.427l0.801-0.184l0.951-1.527l-0.184-0.801
				C108.682,60.379,108.094,60.013,107.799,59.831z M104.004,62.077c-1.224-0.039-2.186-1.064-2.146-2.287
				c0.039-1.227,1.064-2.186,2.288-2.148c1.225,0.04,2.186,1.064,2.147,2.29C106.253,61.157,105.229,62.116,104.004,62.077z"/>
			<circle fill="#8C55E9" cx="104.107" cy="59.864" r="1.279"/>
		</g>
	</g>
</g>
</svg>
