<?xml version="1.0" encoding="utf-8"?>
<!-- Generator: Adobe Illustrator 23.0.5, SVG Export Plug-In . SVG Version: 6.00 Build 0)  -->
<svg version="1.1" id="Layer_1" xmlns="http://www.w3.org/2000/svg" xmlns:xlink="http://www.w3.org/1999/xlink" x="0px" y="0px"
	 viewBox="0 0 340 155.5" style="enable-background:new 0 0 340 155.5;" xml:space="preserve">
<style type="text/css">
	.st0{fill:#F6F6F6;}
	.st1{fill:#4A73E5;}
	.st2{fill:url(#SVGID_1_);}
	.st3{fill:#FBFBFB;}
	.st4{fill:#4775E5;}
	.st5{fill:#FFFFFF;}
	.st6{fill:none;}
</style>
<polygon class="st0" points="-0.4,0 340,0 340,79.9 170,123.9 -0.4,79.9 "/>
<polygon class="st1" points="-0.4,0 340,0 340,73.1 170,117.9 -0.4,73.1 "/>
<linearGradient id="SVGID_1_" gradientUnits="userSpaceOnUse" x1="-0.4" y1="-624.7156" x2="340" y2="-624.7156" gradientTransform="matrix(1 0 0 1 0 679.0156)">
	<stop  offset="0" style="stop-color:#4C73E6"/>
	<stop  offset="0.986" style="stop-color:#8A54E8"/>
</linearGradient>
<polygon class="st2" points="-0.4,0 340,0 340,65 170,108.6 -0.4,65 "/>
<g>
	<g>
		<circle class="st3" cx="170" cy="113.7" r="31.7"/>
	</g>
</g>
<circle class="st4" cx="170" cy="113.7" r="26.2"/>
<g>
	<path class="st5" d="M177.6,118.1l0.7,0.7l-1.8,1.8l-0.7-0.7L177.6,118.1z M177.7,121.8l-0.6-0.6l1.8-1.8l0.6,0.6L177.7,121.8z
		 M174.9,116.6l1.5,1.5l-0.6,0.6l-1.5-1.5C174.6,117,174.8,116.8,174.9,116.6z M184,123.1l-0.4-0.4c-0.1-0.1-0.5-0.1-0.6,0
		c-0.1,0.1-0.1,0.5,0,0.6l0.4,0.4l-1.8,1.8l-3.1-3.1l1.8-1.8l1.5,1.5c0.1,0.1,0.5,0.1,0.6,0c0.1-0.1,0.1-0.5,0-0.6l-1.7-1.7l0,0
		l-1.2-1.2l0,0l-1.1-1.1c-0.1-0.1-0.4-0.2-0.5-0.2c-0.1,0-0.4,0.1-0.5,0.2l0,0l-1.8-1.6c1.1-1.3,2-3.1,2.3-4.8h3.1
		c0.2,0,0.5-0.2,0.5-0.5c0-0.2-0.2-0.5-0.5-0.5h-2.9c0-0.2,0.1-0.5,0.1-0.9h4.9c0.2,0,0.5-0.2,0.5-0.5c0-0.2-0.2-0.5-0.5-0.5h-4.9
		c0-0.2,0-0.6,0-0.9h2.8c0.2,0,0.5-0.2,0.5-0.5c0-0.3-0.2-0.5-0.5-0.5h-2.9c-0.4-1.5-1.1-3.4-2.4-5c-0.1-0.2-0.4-0.2-0.6-0.1
		c-0.2,0.1-0.2,0.4-0.1,0.6c1.5,2,2.3,4.1,2.3,6.6c0,5.9-4.9,10.7-10.7,10.7c-5.8,0-10.7-4.8-10.7-10.7s4.9-10.7,10.7-10.7
		c2.7,0,5.2,1,7.2,2.8c0.1,0.1,0.5,0.1,0.6,0c0.1-0.1,0.1-0.5,0-0.6c-2.2-2-4.9-3.1-7.8-3.1c-6.6,0.3-11.8,5.6-11.8,11.9
		c0,5.6,4,10.4,9.4,11.3v3c0,0.2,0.2,0.5,0.5,0.5c0.2,0,0.5-0.2,0.5-0.5v-2.8c0.2,0,0.6,0,0.9,0.1v4.8c0,0.2,0.2,0.5,0.5,0.5
		c0.2,0,0.5-0.2,0.5-0.5v-4.8c0.2,0,0.6,0,0.9,0v2.7c0,0.2,0.2,0.5,0.5,0.5c0.2,0,0.5-0.2,0.5-0.5v-2.8c2-0.4,3.7-1.2,5.2-2.3
		l1.6,1.6l0,0c-0.1,0.1-0.2,0.4-0.2,0.5c0,0.2,0.1,0.4,0.2,0.5l1.1,1.1l0,0l1.2,1.2l0,0l3.4,3.4c0.1,0.1,0.4,0.2,0.5,0.2
		c0.2,0,0.4-0.1,0.5-0.2l2-2c0.1-0.1,0.2-0.4,0.2-0.5C184.2,123.5,184.1,123.4,184,123.1z"/>
	<rect x="154.8" y="97.1" class="st6" width="29.4" height="29.3"/>
	<path class="st5" d="M160.4,116.5c1.7,1.3,3.8,2,6,2c5.5,0,9.9-4.4,9.9-9.9s-4.4-9.9-9.9-9.9c-2.7,0-5.1,1-7,2.9
		c-1.8,2-2.8,4.5-2.9,7.1c0,2.4,0.9,4.8,2.4,6.6c0.1,0.1,0.5,0.2,0.6,0c0.1-0.1,0.2-0.5,0-0.6c-1.5-1.6-2.3-3.8-2.3-6
		c0-2.4,1-4.6,2.7-6.3c1.8-1.7,4.1-2.7,6.5-2.7c5,0,9,4,9,9s-4,9-9,9c-2,0-3.9-0.6-5.5-1.8c-0.2-0.1-0.5-0.1-0.6,0.1
		C160.2,116.2,160.3,116.4,160.4,116.5z"/>
	<path class="st5" d="M171.3,106.3v2.2h-2.6v-2.2H171.3z M165.3,101.9h2.6v6.6h-2.6C165.3,108.5,165.3,101.9,165.3,101.9z
		 M161.9,104.1h2.6v4.4h-2.6V104.1z M168.1,101H165c-0.4,0-0.6,0.2-0.6,0.6v1.5h-2.8c-0.4,0-0.6,0.2-0.6,0.6v4.6h-0.6
		c-0.2,0-0.5,0.2-0.5,0.5c0,0.3,0.2,0.5,0.5,0.5h12.3c0.2,0,0.5-0.2,0.5-0.5s-0.2-0.5-0.5-0.5h-0.6v-2.4c0-0.4-0.2-0.6-0.6-0.6h-2.8
		v-3.7C168.7,101.4,168.5,101,168.1,101z"/>
	<path class="st5" d="M171.4,113h-2l-1-2.3c-0.1-0.1-0.2-0.2-0.4-0.2c-0.1,0-0.4,0.1-0.4,0.2l-1.2,3.4l-0.9-2.4
		c0-0.1-0.2-0.2-0.4-0.2c-0.1,0-0.4,0.1-0.4,0.2l-0.9,1.5h-2.2c-0.2,0-0.5,0.2-0.5,0.5c0,0.2,0.2,0.5,0.5,0.5h2.3
		c0.1,0,0.2-0.1,0.4-0.2l0.5-0.9l1,2.7c0,0.1,0.2,0.2,0.4,0.2l0,0c0.1,0,0.4-0.1,0.4-0.2l1.2-3.4l0.6,1.6c0.1,0.1,0.2,0.2,0.4,0.2
		h2.3c0.2,0,0.5-0.2,0.5-0.5C171.9,113.2,171.6,113,171.4,113z"/>
</g>
</svg>
