<?xml version="1.0" encoding="utf-8"?>
<!-- Generator: Adobe Illustrator 23.0.5, SVG Export Plug-In . SVG Version: 6.00 Build 0)  -->
<svg version="1.1" id="Layer_1" xmlns="http://www.w3.org/2000/svg" xmlns:xlink="http://www.w3.org/1999/xlink" x="0px" y="0px"
	 viewBox="0 0 340 155.5" style="enable-background:new 0 0 340 155.5;" xml:space="preserve">
<style type="text/css">
	.st0{fill:#F6F6F6;}
	.st1{fill:#4A73E5;}
	.st2{fill:url(#SVGID_1_);}
	.st3{fill:#FBFBFB;}
	.st4{fill:#289FFC;}
	.st5{fill:#FFFFFF;}
</style>
<polygon class="st0" points="-0.4,0 340,0 340,79.9 170,123.9 -0.4,79.9 "/>
<polygon class="st1" points="-0.4,0 340,0 340,73.1 170,117.9 -0.4,73.1 "/>
<linearGradient id="SVGID_1_" gradientUnits="userSpaceOnUse" x1="-0.4" y1="912.7156" x2="340" y2="912.7156" gradientTransform="matrix(1 0 0 -1 0 967.0156)">
	<stop  offset="0" style="stop-color:#4C73E6"/>
	<stop  offset="0.986" style="stop-color:#8A54E8"/>
</linearGradient>
<polygon class="st2" points="-0.4,0 340,0 340,65 170,108.6 -0.4,65 "/>
<g>
	<g>
		<circle class="st3" cx="170" cy="113.7" r="31.7"/>
	</g>
</g>
<circle class="st4" cx="170" cy="113.7" r="26.2"/>
<g>
	<path class="st5" d="M168.1,123.2c-1.1,2.5-3.9,3.6-6.4,2.5c-2.6-1.2-3.6-3.9-2.5-6.4s3.9-3.6,6.4-2.5c1.3,0.5,2,1.4,2.7,2.7
		C168.6,120.6,168.6,122,168.1,123.2z M166.3,115.4c-3.3-1.4-7,0.1-8.4,3.4s0.1,7,3.4,8.4c3.3,1.4,7-0.1,8.4-3.4
		c0.6-1.5,0.6-3.4,0-5C169.1,117.2,167.9,115.9,166.3,115.4z"/>
	<path class="st5" d="M172.6,118.6c-0.4,0.1-0.6,0.5-0.5,0.9c0.4,1.3,0.4,2.5,0,3.7c-0.1,0.4,0.1,0.8,0.5,0.9l1.5,0.6l-0.6,1.4
		l-1.5-0.6c-0.4-0.1-0.8,0-0.9,0.4c-0.6,1.1-1.5,1.9-2.7,2.7c-0.4,0.1-0.5,0.6-0.4,0.9l0.6,1.5l-1.4,0.6l-0.6-1.5
		c-0.1-0.4-0.5-0.5-0.8-0.5h-0.1c-1.3,0.4-2.5,0.4-3.7,0c-0.4-0.1-0.8,0.1-0.9,0.5l-0.6,1.5l-1.4-0.6l0.6-1.5c0.1-0.4,0-0.8-0.4-0.9
		c-1.1-0.6-1.9-1.5-2.7-2.7c-0.1-0.4-0.6-0.5-0.9-0.4l-1.5,0.6l-0.6-1.4l1.5-0.6c0.4-0.1,0.6-0.5,0.5-0.9c-0.4-1.3-0.4-2.5,0-3.7
		c0.1-0.4-0.1-0.8-0.5-0.9l-1.5-0.6l0.6-1.4l1.5,0.6c0.4,0.1,0.8,0,0.9-0.4c0.6-1.1,1.5-1.9,2.7-2.7c0.4-0.1,0.5-0.6,0.4-0.9
		l-0.6-1.5l1.4-0.6l0.6,1.5c0.1,0.4,0.5,0.6,0.9,0.5c1.3-0.4,2.5-0.4,3.7,0c0.4,0.1,0.8-0.1,0.9-0.5l0.6-1.5l1.4,0.6l-0.6,1.5
		c-0.1,0.4,0,0.8,0.4,0.9c1.1,0.6,1.9,1.5,2.7,2.7c0.1,0.4,0.6,0.5,0.9,0.4l1.5-0.6l0.6,1.4L172.6,118.6z M176,117.9l-1.3-2.9
		c-0.1-0.5-0.6-0.6-1.1-0.5l-1.8,0.8c-0.6-0.8-1.3-1.5-2.2-2.2l0.8-1.8c0.1-0.5,0-0.9-0.5-1.1l0,0l-2.9-1.3c-0.5-0.1-0.9,0-1.1,0.5
		l0,0l-0.7,1.8c-0.9-0.1-2-0.1-3.2,0l-0.6-1.9c-0.1-0.4-0.6-0.6-1.1-0.5l-2.9,1.3c-0.5,0.1-0.6,0.6-0.5,1.1l0,0l0.6,1.8
		c-0.8,0.6-1.5,1.3-2.2,2.2l-1.8-0.8c-0.5-0.1-0.9,0-1.1,0.5l0,0l-1.3,2.9c-0.1,0.5,0,0.9,0.5,1.1l0,0l1.8,0.7c-0.1,1.1-0.1,2,0,3.2
		l-1.8,0.8c-0.5,0.1-0.6,0.6-0.5,1.1l0,0l1.3,2.9c0.1,0.5,0.6,0.6,1.1,0.5l1.8-0.8c0.6,0.8,1.3,1.5,2.2,2.2l-0.8,1.8
		c-0.1,0.5,0,0.9,0.5,1.1l0,0l2.9,1.3c0.5,0.1,0.9,0,1.1-0.5l0,0l0.8-1.8c0.9,0.1,2,0.1,3.2,0l0.6,1.8c0.1,0.5,0.6,0.6,1.1,0.5
		l2.9-1.3c0.5-0.1,0.6-0.6,0.5-1.1l0,0l-0.8-1.8c0.8-0.6,1.5-1.3,2.2-2.2l1.8,0.8c0.5,0.1,0.9,0,1.1-0.5l0,0l1.3-2.9
		c0.1-0.5,0-0.9-0.5-1.1l0,0l-1.8-0.8c0.1-1.1,0.1-2,0-3.2l1.8-0.8C175.9,118.9,176.2,118.4,176,117.9z"/>
	<path class="st5" d="M179.5,108.2c-1.3,0-2.3-1.1-2.3-2.3s1.1-2.3,2.3-2.3c1.3,0,2.3,1.1,2.3,2.3S180.7,108.2,179.5,108.2z
		 M179.5,102c-2.2,0-3.9,1.8-3.9,3.9c0,2.2,1.8,3.9,3.9,3.9c2.2,0,3.9-1.8,3.9-3.9C183.6,103.8,181.6,102,179.5,102z"/>
	<path class="st5" d="M187.3,106.2h-1.1c-0.5,0-0.8,0.4-0.8,0.6c-0.1,0.9-0.5,1.8-0.9,2.5c-0.4,0.4-0.1,0.8,0,1.1l0.8,0.8l-0.5,0.5
		L184,111c-0.4-0.4-0.8-0.4-1.1-0.1c-0.8,0.5-1.5,0.8-2.5,0.9c-0.4,0-0.6,0.5-0.6,0.8v1.1H179v-1.1c0-0.5-0.4-0.8-0.6-0.8
		c-0.9-0.1-1.8-0.5-2.5-0.9c-0.4-0.1-0.8-0.1-1.1,0.1l-0.5,0.8l-0.5-0.5l0.8-0.8c0.1-0.4,0.1-0.8,0-1.1c-0.5-0.8-0.8-1.5-0.9-2.5
		c0-0.4-0.5-0.6-0.8-0.6h-1.3v-0.6h1.1c0.5,0,0.8-0.4,0.8-0.6c0.1-0.9,0.5-1.8,0.9-2.5c0.4-0.4,0.4-0.8,0-1.1l-0.8-0.8l0.5-0.5
		l0.8,0.8c0.4,0.4,0.8,0.4,1.1,0.1c0.8-0.5,1.5-0.8,2.5-0.9c0.4,0,0.6-0.5,0.6-0.8v-1.3h0.8v1.1c0,0.5,0.4,0.8,0.6,0.8
		c0.9,0.1,1.8,0.5,2.5,0.9c0.4,0.1,0.8,0.1,1.1-0.1l0.8-0.8l0.5,0.5l-0.8,0.8c-0.4,0.4-0.4,0.8-0.1,1.1c0.5,0.8,0.8,1.5,0.9,2.5
		c0,0.5,0.5,0.6,0.8,0.6h1.1V106.2z M188,103.9h-1.3c-0.1-0.6-0.5-1.3-0.8-1.9l0.9-0.9c0.4-0.4,0.4-0.8,0-1.1l-1.6-1.8
		c-0.4-0.4-0.8-0.4-1.1,0l0,0l-0.8,0.9c-0.6-0.4-1.3-0.6-1.9-0.8v-1.1c0-0.5-0.4-0.8-0.8-0.8l0,0h-2.3c-0.5,0-0.8,0.4-0.8,0.8l0,0
		v1.2c-0.6,0.1-1.3,0.5-1.9,0.8l-0.9-0.9c-0.4-0.4-0.8-0.4-1.1,0l0,0l-1.8,1.8c-0.4,0.4-0.4,0.8,0,1.1l0.9,0.9
		c-0.4,0.6-0.6,1.3-0.8,1.9h-1.3c-0.4-0.1-0.7,0.4-0.7,0.8v2.3c0,0.5,0.4,0.8,0.8,0.8h1.3c0.1,0.6,0.5,1.3,0.8,1.9l-0.9,0.9
		c-0.4,0.4-0.4,0.8,0,1.1l0,0l1.8,1.8c0.4,0.4,0.8,0.4,1.1,0l0,0l0.9-0.9c0.6,0.4,1.3,0.6,1.9,0.8v1.3c0,0.5,0.4,0.8,0.8,0.8l0,0
		h2.3c0.5,0,0.8-0.4,0.8-0.8l0,0v-1.3c0.6-0.1,1.3-0.5,1.9-0.8l0.9,0.9c0.4,0.4,0.8,0.4,1.1,0l0,0l1.8-1.8c0.4-0.4,0.4-0.8,0-1.1
		l0,0l-0.9-0.9c0.4-0.6,0.6-1.3,0.8-1.9h1.3c0.5,0,0.8-0.4,0.8-0.8v-2.3C189,104.4,188.5,103.9,188,103.9z"/>
</g>
</svg>
