<?xml version="1.0" encoding="utf-8"?>
<!-- Generator: Adobe Illustrator 23.0.5, SVG Export Plug-In . SVG Version: 6.00 Build 0)  -->
<svg version="1.1" id="Layer_1" xmlns="http://www.w3.org/2000/svg" xmlns:xlink="http://www.w3.org/1999/xlink" x="0px" y="0px"
	 viewBox="0 0 340 155.5" style="enable-background:new 0 0 340 155.5;" xml:space="preserve">
<style type="text/css">
	.st0{fill:#F6F6F6;}
	.st1{fill:#4A73E5;}
	.st2{fill:url(#SVGID_1_);}
	.st3{fill:#FBFBFB;}
	.st4{fill:#8D54E9;}
	.st5{fill:#FFFFFF;}
	.st6{fill:none;}
</style>
<polygon class="st0" points="-0.4,0 340,0 340,79.9 170,123.9 -0.4,79.9 "/>
<polygon class="st1" points="-0.4,0 340,0 340,73.1 170,117.9 -0.4,73.1 "/>
<linearGradient id="SVGID_1_" gradientUnits="userSpaceOnUse" x1="-0.4" y1="-624.7156" x2="340" y2="-624.7156" gradientTransform="matrix(1 0 0 1 0 679.0156)">
	<stop  offset="0" style="stop-color:#4C73E6"/>
	<stop  offset="0.986" style="stop-color:#8A54E8"/>
</linearGradient>
<polygon class="st2" points="-0.4,0 340,0 340,65 170,108.6 -0.4,65 "/>
<g>
	<g>
		<circle class="st3" cx="170" cy="113.7" r="31.7"/>
	</g>
</g>
<circle class="st4" cx="170" cy="113.7" r="26.2"/>
<g>
	<path class="st5" d="M183.1,124.4l-1.6-1c0.2-0.6,0.4-1.2,0.4-2c0-2.5-1.9-4.6-4.3-4.8v-2c3.5,0.2,6.3,3.2,6.3,6.8
		C183.7,122.4,183.5,123.7,183.1,124.4z M177,128.4c-2.3,0-4.3-1.2-5.6-3l1.7-1c0.9,1.2,2.3,2,4,2c1.6,0,3-0.7,4-2l1.7,1
		C181.4,127.1,179.4,128.4,177,128.4z M176.5,114.8v2c-2.5,0.2-4.3,2.3-4.3,4.8c0,0.7,0.1,1.4,0.4,2l-1.6,1c-0.5-0.9-0.7-1.9-0.7-3
		C170.4,117.9,173.1,114.9,176.5,114.8z M170.4,117.8c-0.2,0.4-0.4,0.9-0.6,1.4h-0.4v-3.8h1V117.8z M177,125.4
		c-2.1,0-3.8-1.7-3.8-3.8s1.7-3.8,3.8-3.8s3.8,1.7,3.8,3.8C180.9,123.7,179.1,125.4,177,125.4z M168.4,110.4c0,0.2-0.2,0.5-0.5,0.5
		c-0.2,0-0.5-0.2-0.5-0.5c0-0.2,0.2-0.5,0.5-0.5C168.1,109.9,168.4,110.2,168.4,110.4z M171.7,106.1c0-0.2,0.2-0.5,0.5-0.5
		c0.2,0,0.5,0.2,0.5,0.5c0,0.3-0.2,0.5-0.5,0.5C172,106.6,171.7,106.3,171.7,106.1z M175.1,108.4c0.2,0,0.5,0.2,0.5,0.5
		c0,0.2-0.2,0.5-0.5,0.5c-0.3,0-0.4-0.2-0.4-0.5C174.7,108.7,174.8,108.4,175.1,108.4z M155.9,103.6h22.3c0.1,0.4,0.2,0.7,0.5,1.1
		l-3,3c-0.2-0.1-0.4-0.1-0.6-0.1s-0.4,0-0.6,0.1l-0.9-1c0.1-0.2,0.1-0.4,0.1-0.6c0-0.7-0.6-1.5-1.5-1.5c-0.7,0-1.5,0.6-1.5,1.5
		c0,0.2,0,0.4,0.1,0.6l-2.4,2.5c-0.2-0.1-0.4-0.1-0.6-0.1c-0.6-0.1-1.4,0.5-1.4,1.4c0,0.7,0.6,1.5,1.5,1.5c0.7,0,1.5-0.6,1.5-1.5
		c0-0.2,0-0.4-0.1-0.6l2.5-2.5c0.2,0.1,0.4,0.1,0.6,0.1c0.2,0,0.4,0,0.6-0.1l1,1c-0.2,0.2-0.2,0.3-0.2,0.5c0,0.7,0.6,1.5,1.5,1.5
		c0.9,0,1.5-0.6,1.5-1.5c0-0.2,0-0.4-0.1-0.6l3-3c0.5,0.4,1,0.6,1.5,0.6v8.8c-1.1-0.6-2.5-1-3.8-1c-2.3,0-4.3,1-5.8,2.6v-2.1h-2.8
		v5.8h1.1c0,0.4-0.1,0.6-0.1,1h-13.9V103.6z M181.4,100.3c1.4,0,2.3,1.1,2.3,2.5c0,1.4-1.1,2.5-2.3,2.5c-1.2,0-2.3-1.1-2.3-2.5
		C179,101.4,180,100.3,181.4,100.3z M181.9,115.4v-9.5c1.6-0.2,2.8-1.6,2.8-3.3c0-1.9-1.5-3.3-3.3-3.3c-1.8,0-3.3,1.5-3.3,3.3h-23.2
		v19.3h14.5c0.2,4.1,3.6,7.3,7.7,7.3c4.2,0,7.7-3.5,7.7-7.8C184.7,119.1,183.6,116.9,181.9,115.4z"/>
	<path class="st5" d="M177,123.4c-1.1,0-2-0.9-2-2c0-1.1,0.9-2,2-2s2,0.9,2,2C179,122.4,178.1,123.4,177,123.4z M177,118.6
		c-1.6,0-2.8,1.4-2.8,2.8c0,1.4,1.2,2.8,2.8,2.8s2.8-1.4,2.8-2.8C179.8,120,178.6,118.6,177,118.6z"/>
	<rect x="156.9" y="104.6" class="st5" width="1" height="1"/>
	<rect x="158.7" y="104.6" class="st5" width="6.7" height="1"/>
	<rect x="156.9" y="106.6" class="st5" width="1" height="1"/>
	<rect x="158.7" y="106.6" class="st5" width="6.7" height="1"/>
	<rect x="156.9" y="108.4" class="st5" width="1" height="1"/>
	<rect x="158.7" y="108.4" class="st5" width="6.7" height="1"/>
	<rect x="156.9" y="110.4" class="st5" width="1" height="1"/>
	<rect x="158.7" y="110.4" class="st5" width="6.7" height="1"/>
	<path class="st5" d="M157.7,116.2h1v2.8h-1V116.2z M156.9,120.1h2.8v-4.9h-2.8V120.1z"/>
	<path class="st5" d="M161.6,117.2h1v1.9h-1V117.2z M160.7,120.1h2.8v-3.9h-2.8V120.1z"/>
	<path class="st5" d="M165.5,113.3h1v5.8h-1V113.3z M164.5,120.1h2.8v-7.8h-2.8V120.1z"/>
	<rect x="154.4" y="98.8" class="st6" width="30.9" height="31"/>
</g>
</svg>
