<?xml version="1.0" encoding="utf-8"?>
<!-- Generator: Adobe Illustrator 17.0.0, SVG Export Plug-In . SVG Version: 6.00 Build 0)  -->
<!DOCTYPE svg PUBLIC "-//W3C//DTD SVG 1.1//EN" "http://www.w3.org/Graphics/SVG/1.1/DTD/svg11.dtd">
<svg version="1.1" id="Layer_1" xmlns="http://www.w3.org/2000/svg" xmlns:xlink="http://www.w3.org/1999/xlink" x="0px" y="0px"
	 width="36px" height="37px" viewBox="554.152 129.135 36 37" enable-background="new 554.152 129.135 36 37" xml:space="preserve">
<g>
	<g>
		<path fill="#C0C0C0" stroke="#C0C0C0" stroke-width="0.25" stroke-miterlimit="10" d="M583.052,141.64h-4.905v-2.725
			c0-0.901-0.734-1.635-1.635-1.635h-8.72c-0.901,0-1.635,0.734-1.635,1.635v2.725h-4.905c-0.901,0-1.635,0.734-1.635,1.635v13.08
			c0,0.901,0.734,1.635,1.635,1.635h21.799c0.901,0,1.635-0.734,1.635-1.635v-13.08C584.687,142.374,583.953,141.64,583.052,141.64z
			 M567.248,138.915c0-0.301,0.244-0.545,0.545-0.545h8.72c0.3,0,0.545,0.244,0.545,0.545v2.725h-9.81V138.915z M583.597,156.355
			c0,0.301-0.245,0.545-0.545,0.545h-21.799c-0.3,0-0.545-0.244-0.545-0.545v-6.734c0.9,1.114,2.275,1.829,3.815,1.829h4.905v1.635
			c0,0.301,0.244,0.545,0.545,0.545h4.36c0.301,0,0.545-0.244,0.545-0.545v-1.635h4.905c1.54,0,2.915-0.715,3.815-1.829V156.355z
			 M570.517,152.54v-3.27h3.27v3.27H570.517z M583.597,146.545c0,2.103-1.711,3.815-3.815,3.815h-4.905v-1.635
			c0-0.301-0.244-0.545-0.545-0.545h-4.36c-0.301,0-0.545,0.244-0.545,0.545v1.635h-4.905c-2.104,0-3.815-1.712-3.815-3.815v-3.27
			c0-0.301,0.245-0.545,0.545-0.545h21.799c0.3,0,0.545,0.244,0.545,0.545V146.545z"/>
	</g>
</g>
</svg>
