<?xml version="1.0" encoding="utf-8"?>
<!-- Generator: Adobe Illustrator 17.0.0, SVG Export Plug-In . SVG Version: 6.00 Build 0)  -->
<!DOCTYPE svg PUBLIC "-//W3C//DTD SVG 1.1//EN" "http://www.w3.org/Graphics/SVG/1.1/DTD/svg11.dtd">
<svg version="1.1" id="Layer_1" xmlns="http://www.w3.org/2000/svg" xmlns:xlink="http://www.w3.org/1999/xlink" x="0px" y="0px"
	 width="36px" height="37px" viewBox="513.902 129.135 36 37" enable-background="new 513.902 129.135 36 37" xml:space="preserve">
<g>
	<g>
		<path fill="#C0C0C0" stroke="#C0C0C0" stroke-width="0.5" stroke-miterlimit="10" d="M543.415,139.565H520.39
			c-0.571,0-1.034,0.463-1.034,1.034v14.073c0,0.571,0.463,1.034,1.034,1.034h23.025c0.571,0,1.034-0.463,1.034-1.034v-14.073
			C544.449,140.028,543.986,139.565,543.415,139.565z M520.39,140.377h23.025c0.097,0,0.183,0.064,0.211,0.157l-11.724,7.323
			l-11.724-7.323C520.207,140.441,520.293,140.377,520.39,140.377z M520.168,141.459l8.433,5.266l-8.433,6.69V141.459z
			 M543.637,154.666c0,0.123-0.099,0.222-0.222,0.222H520.39c-0.122,0-0.222-0.099-0.222-0.222v-0.217l9.164-7.242l2.354,1.472
			c0.132,0.083,0.301,0.083,0.433,0l2.354-1.472l9.164,7.242V154.666z M543.637,153.416l-8.454-6.668l8.454-5.239V153.416z"/>
	</g>
</g>
</svg>
