<?xml version="1.0" encoding="utf-8"?>
<!-- Generator: Adobe Illustrator 17.0.0, SVG Export Plug-In . SVG Version: 6.00 Build 0)  -->
<!DOCTYPE svg PUBLIC "-//W3C//DTD SVG 1.1//EN" "http://www.w3.org/Graphics/SVG/1.1/DTD/svg11.dtd">
<svg version="1.1" id="Layer_1" xmlns="http://www.w3.org/2000/svg" xmlns:xlink="http://www.w3.org/1999/xlink" x="0px" y="0px"
	 width="36px" height="37px" viewBox="0 0 36 37" enable-background="new 0 0 36 37" xml:space="preserve">
<g>
	<g>
		<g>
			<path fill="#B5B5B5" stroke="#B5B5B5" stroke-width="0.5" stroke-miterlimit="10" d="M29.019,10.775H6.981
				c-0.547,0-0.99,0.443-0.99,0.99v13.47c0,0.547,0.443,0.99,0.99,0.99h22.038c0.547,0,0.99-0.443,0.99-0.99v-13.47
				C30.009,11.218,29.566,10.775,29.019,10.775z M6.981,11.553h22.038c0.093,0,0.175,0.061,0.202,0.15L18,18.712L6.778,11.703
				C6.806,11.614,6.888,11.553,6.981,11.553z M6.768,12.588l8.072,5.04l-8.072,6.403V12.588z M29.232,25.229
				c0,0.118-0.095,0.212-0.212,0.212H6.981c-0.117,0-0.212-0.095-0.212-0.212v-0.208l8.771-6.932l2.253,1.409
				c0.126,0.079,0.288,0.079,0.414,0l2.253-1.409l8.771,6.932V25.229z M29.232,24.033l-8.092-6.382l8.092-5.015V24.033z"/>
		</g>
	</g>
</g>
</svg>
