<?xml version="1.0" encoding="utf-8"?>
<!-- Generator: Adobe Illustrator 17.0.0, SVG Export Plug-In . SVG Version: 6.00 Build 0)  -->
<!DOCTYPE svg PUBLIC "-//W3C//DTD SVG 1.1//EN" "http://www.w3.org/Graphics/SVG/1.1/DTD/svg11.dtd">
<svg version="1.1" id="Layer_1" xmlns="http://www.w3.org/2000/svg" xmlns:xlink="http://www.w3.org/1999/xlink" x="0px" y="0px"
	 width="65px" height="65px" viewBox="0 0 65 65" enable-background="new 0 0 65 65" xml:space="preserve">
<g>
	<g>
		<g>
			<path fill="#4775E5" d="M57.221,38.56c-2.842-2.33-5.903-3.877-6.52-4.18c-0.073-0.032-0.115-0.104-0.115-0.188v-4.42
				c0.554-0.365,0.92-1.003,0.92-1.724V23.46c0-2.278-1.849-4.127-4.127-4.127h-0.491h-0.491c-2.278,0-4.127,1.849-4.127,4.127
				v4.587c0,0.721,0.365,1.348,0.92,1.724v4.42c0,0.032-0.011,0.053-0.011,0.073c0.867,0.596,1.776,1.264,2.664,1.996
				c1.035,0.857,1.63,2.111,1.63,3.469v3.688h10.554v-3.145C58.026,39.616,57.733,38.988,57.221,38.56z"/>
		</g>
		<g>
			<path fill="#4775E5" d="M21.81,34.193v-4.42c0.554-0.365,0.92-1.003,0.92-1.724v-4.587c0-2.278-1.849-4.127-4.127-4.127h-0.491
				H17.62c-2.278,0-4.127,1.849-4.127,4.127v4.587c0,0.721,0.365,1.348,0.92,1.724v4.42c0,0.073-0.042,0.146-0.115,0.188
				c-0.627,0.303-3.688,1.849-6.52,4.18c-0.512,0.418-0.804,1.056-0.804,1.714v3.145h10.554v-3.688c0-1.348,0.596-2.613,1.63-3.469
				c0.888-0.732,1.797-1.4,2.664-1.996C21.821,34.245,21.81,34.224,21.81,34.193z"/>
		</g>
		<g>
			<path fill="#4775E5" d="M44.641,37.714c-3.334-2.738-6.927-4.556-7.669-4.921c-0.083-0.042-0.136-0.125-0.136-0.219v-5.193
				c0.647-0.439,1.086-1.181,1.086-2.017v-5.381c0-2.675-2.174-4.848-4.848-4.848H32.5h-0.575c-2.675,0-4.848,2.174-4.848,4.848
				v5.381c0,0.846,0.428,1.588,1.086,2.017v5.193c0,0.094-0.053,0.178-0.136,0.219c-0.732,0.355-4.326,2.174-7.669,4.921
				c-0.606,0.491-0.951,1.233-0.951,2.017v3.688h4.942v-0.418c0-1.076,0.763-1.975,1.776-2.184c0.011-0.021,0.021-0.042,0.032-0.063
				c-0.24-0.355-0.365-0.783-0.365-1.222c0-0.596,0.23-1.149,0.647-1.578l0.596-0.596c0.418-0.418,0.982-0.647,1.578-0.647
				c0.449,0,0.878,0.136,1.233,0.376c0.021-0.011,0.032-0.011,0.053-0.021c0.199-1.024,1.097-1.797,2.184-1.797h0.846l0,0l0,0
				c1.086,0,1.985,0.774,2.184,1.797c0.011,0.011,0.021,0.011,0.042,0.021c0.365-0.251,0.794-0.386,1.254-0.386
				c0.596,0,1.149,0.23,1.567,0.647l0.596,0.596c0.763,0.763,0.857,1.954,0.272,2.821c0.011,0.011,0.011,0.021,0.021,0.042
				c1.024,0.199,1.807,1.097,1.807,2.184v0.428h4.942V39.73C45.592,38.947,45.247,38.205,44.641,37.714z"/>
		</g>
		<g>
			<path fill="#4775E5" d="M38.424,42.437h-0.836c-0.136-0.69-0.397-1.348-0.815-1.943l0.596-0.596c0.209-0.209,0.209-0.564,0-0.774
				l-0.596-0.596c-0.209-0.209-0.564-0.209-0.774,0l-0.596,0.596c-0.596-0.407-1.264-0.679-1.943-0.804v-0.836
				c0-0.303-0.24-0.543-0.543-0.543h-0.846c-0.303,0-0.543,0.24-0.543,0.543v0.825c-0.69,0.125-1.358,0.397-1.954,0.804
				l-0.585-0.585c-0.209-0.209-0.564-0.209-0.774,0l-0.596,0.596c-0.209,0.209-0.209,0.564,0,0.774l0.575,0.575
				c-0.407,0.606-0.69,1.275-0.815,1.964h-0.804c-0.303,0-0.543,0.24-0.543,0.543v0.846c0,0.303,0.24,0.543,0.543,0.543h0.804
				c0.125,0.69,0.397,1.368,0.815,1.964l-0.564,0.564c-0.209,0.209-0.209,0.564,0,0.774l0.596,0.596
				c0.209,0.209,0.564,0.209,0.774,0l0.564-0.564c0.606,0.407,1.275,0.679,1.975,0.815v0.804c0,0.303,0.24,0.543,0.543,0.543h0.846
				c0.303,0,0.543-0.24,0.543-0.543v-0.804c0.69-0.136,1.358-0.407,1.954-0.815L36,48.278c0.209,0.209,0.564,0.209,0.774,0
				l0.596-0.596c0.209-0.209,0.209-0.564,0-0.774l-0.585-0.584c0.407-0.606,0.668-1.264,0.804-1.954h0.825
				c0.303,0,0.543-0.24,0.543-0.543v-0.846C38.978,42.687,38.727,42.437,38.424,42.437z M34.495,45.404
				c-1.097,1.097-2.884,1.107-3.992,0c-1.097-1.097-1.107-2.884,0-3.992c1.097-1.097,2.884-1.107,3.992,0
				C35.592,42.52,35.592,44.307,34.495,45.404z"/>
		</g>
	</g>
</g>
</svg>
