<?xml version="1.0" encoding="utf-8"?>
<!-- Generator: Adobe Illustrator 17.0.0, SVG Export Plug-In . SVG Version: 6.00 Build 0)  -->
<!DOCTYPE svg PUBLIC "-//W3C//DTD SVG 1.1//EN" "http://www.w3.org/Graphics/SVG/1.1/DTD/svg11.dtd">
<svg version="1.1" id="Layer_1" xmlns="http://www.w3.org/2000/svg" xmlns:xlink="http://www.w3.org/1999/xlink" x="0px" y="0px"
	 width="77px" height="68px" viewBox="453.333 113.635 77 68" enable-background="new 453.333 113.635 77 68" xml:space="preserve">
<path fill="#4774E7" d="M491.833,136.351c-6.222,0-11.283,5.062-11.283,11.284c0,6.221,5.062,11.283,11.283,11.283
	c6.222,0,11.284-5.062,11.284-11.283C503.117,141.413,498.055,136.351,491.833,136.351z M491.833,155.035c-4.08,0-7.4-3.32-7.4-7.4
	c0-4.08,3.32-7.4,7.4-7.4c4.08,0,7.4,3.32,7.4,7.4S495.913,155.035,491.833,155.035z"/>
<path fill="#4774E7" d="M522.003,145.758h-6.892c-0.91-11.392-10.024-20.508-21.417-21.417v-6.855c0-1.036-0.84-1.877-1.877-1.877
	c-1.037,0-1.877,0.84-1.877,1.877v6.855c-11.392,0.91-20.507,10.024-21.417,21.417h-6.857c-1.036,0-1.877,0.84-1.877,1.877
	c0,1.036,0.84,1.877,1.877,1.877h6.857c0.91,11.392,10.025,20.507,21.417,21.417v6.854c0,1.036,0.84,1.877,1.877,1.877
	c1.037,0,1.877-0.84,1.877-1.877v-6.854c11.392-0.91,20.507-10.024,21.417-21.417h6.892c1.036,0,1.877-0.84,1.877-1.877
	C523.879,146.598,523.039,145.758,522.003,145.758z M491.816,167.251c-10.816,0-19.616-8.8-19.616-19.616
	c0-10.816,8.8-19.616,19.616-19.616c10.816,0,19.616,8.8,19.616,19.616C511.432,158.452,502.632,167.251,491.816,167.251z"/>
</svg>
