<?xml version="1.0" encoding="utf-8"?>
<!-- Generator: Adobe Illustrator 17.0.0, SVG Export Plug-In . SVG Version: 6.00 Build 0)  -->
<!DOCTYPE svg PUBLIC "-//W3C//DTD SVG 1.1//EN" "http://www.w3.org/Graphics/SVG/1.1/DTD/svg11.dtd">
<svg version="1.1" id="Layer_1" xmlns="http://www.w3.org/2000/svg" xmlns:xlink="http://www.w3.org/1999/xlink" x="0px" y="0px"
	 width="36px" height="37px" viewBox="473.833 129.135 36 37" enable-background="new 473.833 129.135 36 37" xml:space="preserve">
<g>
	<g>
		<path fill="#989898" d="M499.485,152.574c-0.026-0.003-3.833,0.109-4.399-3.97c0.629-0.439,1.209-1.009,1.719-1.7
			c0.993-1.345,1.634-3.032,1.862-4.857c0.078-0.071,0.143-0.159,0.187-0.263c0.413-0.983,0.622-2.032,0.622-3.119
			c0-4.172-3.147-7.566-7.016-7.566c-1.012,0-1.993,0.233-2.92,0.693c-0.354,0.027-0.7,0.089-1.033,0.185
			c-1.589,0.459-2.882,1.637-3.641,3.317c-0.737,1.631-0.882,3.552-0.409,5.407c0.1,0.392,0.227,0.777,0.378,1.145
			c0.041,0.1,0.102,0.184,0.175,0.254c0.369,2.848,1.725,5.208,3.573,6.497c-0.568,4.087-4.373,3.973-4.4,3.976
			c-2.738,0.093-4.937,2.347-4.937,5.107v5.745c0,0.411,0.333,0.745,0.745,0.745h6.539h10.608h6.539
			c0.411,0,0.745-0.333,0.745-0.745v-5.745C504.421,154.921,502.222,152.667,499.485,152.574z M488.92,133.408
			c0.272-0.079,0.559-0.125,0.853-0.138c0.109-0.005,0.216-0.034,0.313-0.085c0.754-0.396,1.553-0.597,2.374-0.597
			c3.047,0,5.526,2.726,5.526,6.077c0,0.101-0.003,0.201-0.007,0.3c-0.591-0.6-1.412-0.973-2.319-0.973h-5.075
			c-0.302,0-0.589-0.095-0.829-0.274c-0.205-0.153-0.364-0.359-0.459-0.595c-0.147-0.365-0.509-0.594-0.902-0.569
			c-0.395,0.025-0.728,0.3-0.828,0.683c-0.294,1.13-0.881,2.171-1.685,3.015C485.132,137.171,486.483,134.112,488.92,133.408z
			 M488.272,146.287c-0.969-1.184-1.604-2.782-1.805-4.532c0.94-0.837,1.682-1.88,2.166-3.036c0.073,0.068,0.15,0.132,0.231,0.192
			c0.5,0.373,1.094,0.57,1.72,0.57h5.075c0.718,0,1.337,0.431,1.613,1.047c0,0.005-0.001,0.01-0.001,0.016
			c0,4.204-2.439,7.624-5.437,7.624C490.53,148.168,489.264,147.5,488.272,146.287z M489.983,149.329
			c0.59,0.214,1.211,0.328,1.852,0.328c0.635,0,1.256-0.111,1.85-0.324c0.273,1.421,1.062,2.659,2.166,3.511l-3.91,5.569
			c-0.026,0.036-0.061,0.055-0.105,0.055c-0.044,0-0.08-0.018-0.105-0.055l-3.911-5.57
			C488.921,151.99,489.711,150.751,489.983,149.329z M502.932,162.682h-5.794h-10.608h-5.794v-5c0-1.997,1.625-3.622,3.622-3.622
			c0.027,0,1.225-0.029,2.172-0.459l3.981,5.669c0.303,0.431,0.798,0.688,1.324,0.688c0,0,0,0,0,0c0.527,0,1.022-0.257,1.324-0.688
			l3.98-5.668c1.08,0.459,2.143,0.459,2.17,0.459c1.997,0,3.622,1.625,3.622,3.622V162.682L502.932,162.682z"/>
	</g>
</g>
</svg>
