<?xml version="1.0" encoding="utf-8"?>
<!-- Generator: Adobe Illustrator 17.0.0, SVG Export Plug-In . SVG Version: 6.00 Build 0)  -->
<!DOCTYPE svg PUBLIC "-//W3C//DTD SVG 1.1//EN" "http://www.w3.org/Graphics/SVG/1.1/DTD/svg11.dtd">
<svg version="1.1" id="Layer_1" xmlns="http://www.w3.org/2000/svg" xmlns:xlink="http://www.w3.org/1999/xlink" x="0px" y="0px"
	 width="100px" height="28px" viewBox="0 0 100 28" enable-background="new 0 0 100 28" xml:space="preserve">
<g>
	
		<rect x="5.38" y="17.038" fill="#5171B7" stroke="#5170B6" stroke-width="0.75" stroke-miterlimit="10" width="3.982" height="8.962"/>
	
		<rect x="11.39" y="14.028" fill="#5170B6" stroke="#5170B6" stroke-width="0.75" stroke-miterlimit="10" width="3.982" height="11.972"/>
	
		<rect x="17.4" y="10.028" fill="#5170B6" stroke="#5170B6" stroke-width="0.75" stroke-miterlimit="10" width="3.982" height="15.972"/>
	<rect x="23.41" y="6" fill="#5170B6" stroke="#5170B6" stroke-width="0.75" stroke-miterlimit="10" width="3.982" height="20"/>
	<rect x="29.42" y="2" fill="#5170B6" stroke="#5170B6" stroke-width="0.75" stroke-miterlimit="10" width="3.982" height="24"/>
	<g>
		<path fill="#212529" d="M50.013,13.692h-5.376v5.136h-1.328v-11.2h1.328v4.88h5.376v-4.88h1.329v11.2h-1.329V13.692z"/>
		<path fill="#212529" d="M53.934,8.396c0-0.245,0.082-0.456,0.248-0.632C54.346,7.588,54.557,7.5,54.814,7.5
			c0.256,0,0.475,0.088,0.655,0.264c0.182,0.176,0.272,0.387,0.272,0.632c0,0.246-0.091,0.448-0.272,0.608
			c-0.181,0.16-0.399,0.24-0.655,0.24c-0.257,0-0.468-0.08-0.632-0.24C54.016,8.844,53.934,8.642,53.934,8.396z M54.205,10.828h1.28
			v8h-1.28V10.828z"/>
		<path fill="#212529" d="M64.35,19.196c0,1.034-0.275,1.797-0.824,2.288c-0.55,0.49-1.363,0.735-2.44,0.735
			c-0.64,0-1.154-0.04-1.544-0.119c-0.39-0.08-0.723-0.185-1-0.313l0.336-1.088c0.245,0.096,0.518,0.187,0.816,0.271
			c0.299,0.086,0.688,0.129,1.168,0.129c0.448,0,0.813-0.04,1.096-0.12c0.283-0.08,0.51-0.214,0.681-0.4
			c0.17-0.187,0.287-0.427,0.352-0.72c0.064-0.294,0.096-0.643,0.096-1.048v-0.769h-0.063c-0.214,0.31-0.485,0.547-0.816,0.712
			s-0.763,0.248-1.296,0.248c-1.077,0-1.869-0.336-2.376-1.008s-0.76-1.718-0.76-3.136c0-1.365,0.325-2.403,0.976-3.112
			c0.65-0.709,1.61-1.064,2.88-1.064c0.608,0,1.128,0.048,1.561,0.144c0.432,0.096,0.818,0.208,1.16,0.336V19.196z M61.133,17.884
			c0.545,0,0.971-0.136,1.28-0.408c0.31-0.271,0.528-0.695,0.656-1.271v-4.096c-0.427-0.202-0.971-0.304-1.632-0.304
			c-0.726,0-1.296,0.246-1.712,0.736c-0.416,0.491-0.624,1.259-0.624,2.304c0,0.448,0.037,0.858,0.111,1.232
			c0.075,0.373,0.192,0.693,0.353,0.96s0.368,0.475,0.624,0.624S60.76,17.884,61.133,17.884z"/>
		<path fill="#212529" d="M71.949,18.828v-4.56c0-0.416-0.024-0.781-0.072-1.096c-0.048-0.315-0.136-0.576-0.264-0.784
			s-0.302-0.365-0.521-0.472c-0.219-0.106-0.504-0.16-0.855-0.16c-0.502,0-0.955,0.163-1.36,0.488
			c-0.405,0.326-0.667,0.744-0.784,1.256v5.328h-1.279v-11.2h1.279v4.096h0.064c0.277-0.331,0.61-0.595,1-0.792
			c0.389-0.197,0.872-0.296,1.448-0.296c0.447,0,0.837,0.051,1.168,0.152c0.33,0.102,0.604,0.28,0.823,0.536s0.379,0.6,0.48,1.032
			c0.102,0.432,0.152,0.979,0.152,1.64v4.832H71.949z"/>
	</g>
</g>
</svg>
