<?xml version="1.0" encoding="utf-8"?>
<!-- Generator: Adobe Illustrator 17.0.0, SVG Export Plug-In . SVG Version: 6.00 Build 0)  -->
<!DOCTYPE svg PUBLIC "-//W3C//DTD SVG 1.1//EN" "http://www.w3.org/Graphics/SVG/1.1/DTD/svg11.dtd">
<svg version="1.1" id="Layer_1" xmlns="http://www.w3.org/2000/svg" xmlns:xlink="http://www.w3.org/1999/xlink" x="0px" y="0px"
	 width="65px" height="65px" viewBox="0 0 65 65" enable-background="new 0 0 65 65" xml:space="preserve">
<g>
	<g>
		<path fill="#4775E5" d="M47.249,33.665c-0.262-0.351-0.759-0.421-1.11-0.159c-0.168,0.127-0.279,0.314-0.308,0.522l-0.44,3.082
			c-0.01,0.04-0.024,0.078-0.041,0.115c0.808-1.073,1.46-2.255,1.937-3.511L47.249,33.665z"/>
	</g>
</g>
<g>
	<g>
		<path fill="#4775E5" d="M44.606,37.79c-0.037,0-0.074-0.003-0.111-0.008l-4.706-0.673c-0.433-0.063-0.733-0.463-0.672-0.897l0,0
			l0.44-3.082c0.061-0.434-0.241-0.835-0.673-0.896c-0.207-0.029-0.417,0.024-0.585,0.15l-2.491,1.867
			c-0.351,0.262-0.846,0.192-1.11-0.159l0,0l-2.852-3.803c-0.262-0.351-0.192-0.846,0.159-1.11l2.49-1.867
			c0.351-0.262,0.421-0.759,0.159-1.11c-0.127-0.168-0.314-0.279-0.522-0.308l-3.082-0.44c-0.433-0.061-0.735-0.463-0.673-0.896
			c0,0,0,0,0-0.001l0.673-4.705c0.061-0.433,0.463-0.735,0.896-0.673c0,0,0,0,0.001,0l3.082,0.44
			c0.317,0.046,0.63-0.105,0.792-0.381c0.168-0.275,0.15-0.625-0.047-0.879l-1.866-2.49c-0.262-0.351-0.192-0.846,0.159-1.11
			l0.449-0.337c-0.728-0.035-1.457-0.015-2.182,0.059c-7.826,0.893-13.445,7.961-12.551,15.787c0.486,4.264,2.867,8.08,6.48,10.393
			c1.32,0.818,2.13,2.253,2.149,3.805v3.201c0,1.313,1.064,2.377,2.377,2.377h6.338c1.313,0,2.377-1.064,2.377-2.377v-3.136
			c0.02-1.588,0.847-3.058,2.195-3.9c1.249-0.81,2.364-1.81,3.306-2.963C44.883,37.747,44.747,37.788,44.606,37.79z M34.747,47.673
			h-1.585v-2.377h1.585V47.673z M33.163,43.711c0-2.095-1.293-3.973-3.249-4.722c-5.705-2.231-8.522-8.664-6.291-14.37
			c0.864-2.209,2.413-4.083,4.421-5.348l0.841,1.34c-4.444,2.797-5.78,8.667-2.984,13.111c1.083,1.722,2.69,3.05,4.585,3.791
			c2.568,0.982,4.262,3.447,4.261,6.196h-1.585V43.711z"/>
	</g>
</g>
<g>
	<g>
		<path fill="#4775E5" d="M30.786,54.011v0.792c0,0.875,0.709,1.585,1.585,1.585h3.169c0.875,0,1.585-0.709,1.585-1.585v-0.792
			H30.786z"/>
	</g>
</g>
<g>
	<g>
		<path fill="#4775E5" d="M25.833,41.334c-0.47-0.305-0.922-0.635-1.354-0.989c-1.195,2.328-4.054,3.246-6.382,2.05
			c-1.585-0.814-2.579-2.449-2.574-4.23c0.004-2.395,1.788-4.415,4.164-4.713c-0.291-0.874-0.5-1.774-0.627-2.687l-0.138,0.659
			c-0.18,0.856-1.02,1.404-1.876,1.225c-0.205-0.044-0.399-0.127-0.572-0.246l-1.647-1.131l-1.444,1.44l1.134,1.65
			c0.497,0.721,0.315,1.707-0.406,2.204c-0.173,0.119-0.367,0.202-0.573,0.246l-1.975,0.416v1.883l1.975,0.416
			c0.856,0.18,1.404,1.02,1.224,1.878c-0.044,0.206-0.127,0.401-0.247,0.573l-1.134,1.641l1.444,1.44l1.646-1.134
			c0.721-0.497,1.707-0.315,2.204,0.406c0.119,0.173,0.202,0.367,0.246,0.573l0.415,1.979h1.883l0.415-1.975
			c0.18-0.856,1.02-1.404,1.876-1.224c0.205,0.044,0.401,0.127,0.573,0.246l1.646,1.131l1.7-1.7
			C27.144,42.521,26.581,41.807,25.833,41.334z"/>
	</g>
</g>
<g>
	<g>
		<rect x="30.786" y="50.842" fill="#4775E5" width="6.338" height="1.585"/>
	</g>
</g>
<g>
	<g>
		<path fill="#4775E5" d="M53.738,23.898c-1.299-0.186-2.203-1.39-2.016-2.689c0.09-0.625,0.422-1.187,0.927-1.565l1.856-1.393
			l-1.902-2.536l-1.856,1.393c-1.05,0.788-2.539,0.576-3.328-0.475c-0.378-0.503-0.54-1.137-0.452-1.76l0.328-2.298l-3.137-0.448
			l-0.328,2.298c-0.186,1.299-1.39,2.203-2.689,2.016c-0.625-0.09-1.187-0.422-1.565-0.927l-1.393-1.86l-2.536,1.902l1.393,1.856
			c0.787,1.05,0.575,2.539-0.475,3.328c-0.504,0.379-1.139,0.541-1.764,0.452l-2.298-0.328l-0.451,3.137l2.298,0.328
			c1.299,0.186,2.203,1.39,2.016,2.689c-0.09,0.625-0.422,1.187-0.927,1.565l-1.856,1.393l1.902,2.536l1.856-1.393
			c1.05-0.787,2.539-0.575,3.328,0.475c0.379,0.504,0.541,1.139,0.452,1.764l-0.328,2.298l3.144,0.451l0.328-2.298
			c0.186-1.299,1.39-2.203,2.689-2.016c0.625,0.09,1.187,0.422,1.565,0.927l1.393,1.856l2.537-1.902l-1.396-1.86
			c-0.787-1.051-0.575-2.539,0.476-3.328c0.503-0.378,1.137-0.54,1.759-0.452l2.298,0.328l0.448-3.137L53.738,23.898z
			 M44.046,28.868c-2.625,0-4.754-2.129-4.754-4.754s2.129-4.754,4.754-4.754c2.625,0,4.754,2.129,4.754,4.754
			C48.796,26.738,46.67,28.864,44.046,28.868z"/>
	</g>
</g>
<g>
	<g>
		<rect x="49.009" y="39.75" fill="#4775E5" width="5.546" height="1.585"/>
	</g>
</g>
<g>
	<g>
		
			<rect x="49.801" y="43.389" transform="matrix(0.6401 -0.7683 0.7683 0.6401 -17.5041 55.5998)" fill="#4775E5" width="1.585" height="6.187"/>
	</g>
</g>
<g>
	<g>
		<rect x="44.255" y="46.088" fill="#4775E5" width="1.585" height="5.546"/>
	</g>
</g>
<g>
	<g>
		
			<rect x="10.883" y="23.113" transform="matrix(0.9701 -0.2425 0.2425 0.9701 -5.3748 4.1451)" fill="#4775E5" width="6.533" height="1.583"/>
	</g>
</g>
<g>
	<g>
		
			<rect x="14.546" y="13.763" transform="matrix(0.5812 -0.8137 0.8137 0.5812 -7.5492 19.6716)" fill="#4775E5" width="1.583" height="6.814"/>
	</g>
</g>
<g>
	<g>
		
			<rect x="19.678" y="10.333" transform="matrix(0.9688 -0.2477 0.2477 0.9688 -2.7318 5.4946)" fill="#4775E5" width="1.585" height="6.542"/>
	</g>
</g>
</svg>
