<?xml version="1.0" encoding="utf-8"?>
<!-- Generator: Adobe Illustrator 17.0.0, SVG Export Plug-In . SVG Version: 6.00 Build 0)  -->
<!DOCTYPE svg PUBLIC "-//W3C//DTD SVG 1.1//EN" "http://www.w3.org/Graphics/SVG/1.1/DTD/svg11.dtd">
<svg version="1.1" id="Capa_1" xmlns="http://www.w3.org/2000/svg" xmlns:xlink="http://www.w3.org/1999/xlink" x="0px" y="0px"
	 width="79px" height="34px" viewBox="2314.194 1466.129 79 34" enable-background="new 2314.194 1466.129 79 34"
	 xml:space="preserve">
<g>
	<path fill="#FFFFFF" d="M2390.089,1499.799c0.025-0.005,0.049-0.011,0.074-0.018c0.021-0.005,0.042-0.01,0.063-0.016
		c0.024-0.007,0.047-0.016,0.071-0.024c0.021-0.007,0.042-0.014,0.062-0.022c0.022-0.009,0.043-0.02,0.065-0.03
		c0.021-0.01,0.042-0.019,0.063-0.03c0.021-0.011,0.04-0.023,0.06-0.035c0.021-0.012,0.041-0.023,0.061-0.036
		c0.021-0.014,0.041-0.029,0.062-0.044c0.017-0.013,0.035-0.025,0.052-0.038c0.031-0.025,0.061-0.052,0.089-0.079
		c0.005-0.005,0.011-0.009,0.016-0.014c0.005-0.005,0.01-0.011,0.015-0.017c0.028-0.028,0.054-0.056,0.08-0.087
		c0.015-0.018,0.028-0.036,0.042-0.055c0.014-0.019,0.029-0.037,0.042-0.057c0.014-0.021,0.027-0.043,0.04-0.064
		c0.011-0.018,0.023-0.036,0.033-0.054c0.012-0.022,0.022-0.044,0.032-0.066c0.009-0.02,0.02-0.039,0.028-0.059
		c0.009-0.022,0.016-0.044,0.024-0.066c0.008-0.021,0.016-0.043,0.023-0.065c0.007-0.022,0.012-0.045,0.018-0.068
		c0.005-0.022,0.012-0.044,0.016-0.066c0.005-0.027,0.009-0.053,0.013-0.08c0.003-0.019,0.006-0.037,0.008-0.057
		c0.005-0.047,0.007-0.094,0.007-0.141v-30.204c0-0.781-0.644-1.413-1.438-1.413h-45.314c-0.013,0-0.025,0.001-0.038,0.002
		c-0.027,0.001-0.054,0.002-0.082,0.004c-0.022,0.002-0.043,0.004-0.065,0.007c-0.025,0.003-0.049,0.007-0.073,0.011
		c-0.023,0.004-0.045,0.009-0.068,0.014c-0.023,0.005-0.046,0.011-0.068,0.017c-0.022,0.006-0.045,0.013-0.066,0.02
		c-0.022,0.008-0.045,0.016-0.067,0.024c-0.021,0.008-0.042,0.016-0.062,0.025c-0.023,0.01-0.045,0.021-0.067,0.032
		c-0.019,0.01-0.038,0.019-0.056,0.03c-0.022,0.012-0.044,0.026-0.066,0.039c-0.018,0.011-0.035,0.023-0.052,0.035
		c-0.02,0.014-0.041,0.029-0.06,0.044c-0.018,0.014-0.036,0.029-0.053,0.043s-0.034,0.03-0.051,0.046
		c-0.019,0.018-0.037,0.036-0.055,0.055c-0.009,0.009-0.019,0.018-0.027,0.027c-0.005,0.006-0.009,0.012-0.014,0.018
		c-0.018,0.021-0.035,0.042-0.052,0.064c-0.012,0.016-0.025,0.032-0.037,0.048c-0.015,0.021-0.029,0.043-0.042,0.065
		c-0.011,0.018-0.023,0.036-0.033,0.054c-0.012,0.021-0.023,0.043-0.034,0.064c-0.01,0.02-0.02,0.04-0.029,0.06
		c-0.009,0.021-0.018,0.043-0.026,0.065c-0.008,0.021-0.017,0.042-0.024,0.064c-0.007,0.022-0.013,0.044-0.019,0.066
		c-0.006,0.023-0.013,0.045-0.018,0.068c-0.005,0.021-0.008,0.043-0.012,0.064c-0.004,0.025-0.008,0.049-0.011,0.073
		c-0.002,0.02-0.004,0.041-0.005,0.062c-0.002,0.026-0.004,0.053-0.004,0.079c0,0.008-0.001,0.015-0.001,0.023v8.714
		c0,0.781,0.644,1.413,1.438,1.413s1.439-0.632,1.439-1.413v-5.576l12.79,11.123c-0.067,0.046-0.131,0.097-0.191,0.156
		l-12.599,12.376v-9.286c0-0.781-0.644-1.413-1.438-1.413s-1.438,0.632-1.438,1.413v1.727h-16.276c-0.795,0-1.439,0.632-1.439,1.413
		s0.644,1.413,1.439,1.413h16.276v8.145c0,0.781,0.644,1.413,1.438,1.413h45.314c0.047,0,0.095-0.003,0.142-0.007
		c0.022-0.002,0.043-0.006,0.065-0.009C2390.04,1499.807,2390.064,1499.804,2390.089,1499.799z M2388.369,1495.002l-12.599-12.376
		c-0.008-0.008-0.017-0.015-0.025-0.022l9.472-7.894c0.606-0.505,0.68-1.396,0.166-1.992c-0.514-0.595-1.421-0.668-2.028-0.163
		l-16.185,13.488l-18.882-16.422h40.081V1495.002L2388.369,1495.002z M2360.566,1484.624c0.103-0.101,0.186-0.213,0.251-0.333
		l5.381,4.679c0.272,0.236,0.613,0.355,0.954,0.355c0.331,0,0.662-0.112,0.931-0.336l5.483-4.57c0.05,0.072,0.106,0.14,0.171,0.203
		l12.599,12.376h-38.368L2360.566,1484.624z"/>
	<path fill="#FFFFFF" d="M2317.707,1482.889h32.94c0.795,0,1.439-0.633,1.439-1.413c0-0.781-0.644-1.413-1.439-1.413h-32.94
		c-0.795,0-1.438,0.633-1.438,1.413C2316.268,1482.256,2316.912,1482.889,2317.707,1482.889z"/>
	<path fill="#FFFFFF" d="M2319.959,1475.101h19.819c0.795,0,1.439-0.632,1.439-1.413s-0.644-1.413-1.439-1.413h-19.819
		c-0.795,0-1.439,0.632-1.439,1.413C2318.521,1474.469,2319.165,1475.101,2319.959,1475.101z"/>
	<path fill="#FFFFFF" d="M2336.901,1493.408h-19.194c-0.795,0-1.438,0.632-1.438,1.413s0.644,1.413,1.438,1.413h19.194
		c0.795,0,1.438-0.632,1.438-1.413S2337.696,1493.408,2336.901,1493.408z"/>
</g>
</svg>
