<?xml version="1.0" encoding="utf-8"?>
<!-- Generator: Adobe Illustrator 17.0.0, SVG Export Plug-In . SVG Version: 6.00 Build 0)  -->
<!DOCTYPE svg PUBLIC "-//W3C//DTD SVG 1.1//EN" "http://www.w3.org/Graphics/SVG/1.1/DTD/svg11.dtd">
<svg version="1.1" id="Layer_1" xmlns="http://www.w3.org/2000/svg" xmlns:xlink="http://www.w3.org/1999/xlink" x="0px" y="0px"
	 width="25px" height="30px" viewBox="531.745 132.635 25 30" enable-background="new 531.745 132.635 25 30" xml:space="preserve">
<g>
	<g>
		<path fill="#282828" d="M554.41,160.311l-3.596-7.606c-0.072-0.152-0.196-0.268-0.345-0.331l-1.789-0.796l3.1-5.195
			c0.007-0.012,0.014-0.025,0.021-0.038c0.616-1.203,0.929-2.503,0.929-3.863c0-2.288-0.897-4.434-2.527-6.041
			c-1.629-1.607-3.788-2.475-6.077-2.442c-2.224,0.031-4.318,0.924-5.896,2.515c-1.578,1.591-2.455,3.692-2.468,5.917
			c-0.008,1.359,0.313,2.713,0.929,3.914c0.007,0.013,0.014,0.026,0.021,0.038l3.099,5.195l-1.799,0.801
			c-0.147,0.065-0.266,0.182-0.335,0.327l-3.596,7.606c-0.12,0.254-0.07,0.557,0.127,0.758c0.197,0.201,0.498,0.259,0.755,0.144
			l4.504-2.005l4.504,2.005c0.174,0.077,0.373,0.077,0.547,0l4.504-2.005l4.504,2.005c0.088,0.039,0.181,0.058,0.274,0.058
			c0.177,0,0.352-0.07,0.481-0.203C554.48,160.868,554.53,160.566,554.41,160.311z M537.878,145.712
			c-0.518-1.019-0.778-2.12-0.771-3.274c0.023-3.858,3.18-7.041,7.037-7.094c1.927-0.026,3.743,0.703,5.114,2.055
			c1.371,1.352,2.126,3.157,2.126,5.083c0,1.138-0.259,2.224-0.771,3.23l-5.789,9.703c-0.177,0.296-0.463,0.328-0.578,0.328
			s-0.401-0.032-0.578-0.328L537.878,145.712z M549.297,157.857c-0.174-0.077-0.373-0.077-0.547,0l-4.504,2.005l-4.504-2.005
			c-0.174-0.077-0.373-0.077-0.547,0l-3.12,1.389l2.714-5.74l1.718-0.765l2.007,3.363c0.368,0.616,1.016,0.984,1.734,0.984
			c0.718,0,1.366-0.368,1.734-0.984l2.007-3.363l1.719,0.765l2.713,5.74L549.297,157.857z"/>
	</g>
</g>
<g>
	<g>
		<path fill="#282828" d="M544.246,139.41c-1.694,0-3.072,1.378-3.072,3.071c0,1.694,1.378,3.071,3.072,3.071
			c1.694,0,3.071-1.378,3.071-3.071C547.317,140.788,545.939,139.41,544.246,139.41z M544.246,144.207
			c-0.951,0-1.726-0.774-1.726-1.726c0-0.951,0.774-1.726,1.726-1.726c0.951,0,1.726,0.774,1.726,1.726
			S545.197,144.207,544.246,144.207z"/>
	</g>
</g>
</svg>
