<?xml version="1.0" encoding="utf-8"?>
<!-- Generator: Adobe Illustrator 17.0.0, SVG Export Plug-In . SVG Version: 6.00 Build 0)  -->
<!DOCTYPE svg PUBLIC "-//W3C//DTD SVG 1.1//EN" "http://www.w3.org/Graphics/SVG/1.1/DTD/svg11.dtd">
<svg version="1.1" id="Layer_1" xmlns="http://www.w3.org/2000/svg" xmlns:xlink="http://www.w3.org/1999/xlink" x="0px" y="0px"
	 width="36px" height="37px" viewBox="635.152 129.135 36 37" enable-background="new 635.152 129.135 36 37" xml:space="preserve">
<g>
	<g>
		<path fill="#C0C0C0" d="M653.152,134.18c-5.216,0-9.46,4.244-9.46,9.46c0,1.762,0.488,3.482,1.412,4.975l7.51,12.102
			c0.144,0.232,0.397,0.373,0.67,0.373c0.002,0,0.004,0,0.006,0c0.275-0.002,0.529-0.147,0.67-0.383l7.318-12.219
			c0.873-1.461,1.334-3.137,1.334-4.847C662.613,138.424,658.369,134.18,653.152,134.18z M659.925,147.678l-6.654,11.109
			l-6.827-11.002c-0.769-1.242-1.186-2.675-1.186-4.144c0-4.347,3.547-7.894,7.894-7.894s7.889,3.547,7.889,7.894
			C661.041,145.066,660.652,146.462,659.925,147.678z"/>
	</g>
</g>
<g>
	<g>
		<path fill="#C0C0C0" d="M653.152,138.91c-2.608,0-4.73,2.122-4.73,4.73c0,2.592,2.087,4.73,4.73,4.73
			c2.675,0,4.73-2.167,4.73-4.73C657.883,141.032,655.761,138.91,653.152,138.91z M653.152,146.804
			c-1.748,0-3.164-1.421-3.164-3.164c0-1.739,1.425-3.164,3.164-3.164s3.159,1.425,3.159,3.164
			C656.311,145.358,654.928,146.804,653.152,146.804z"/>
	</g>
</g>
</svg>
