<?xml version="1.0" encoding="utf-8"?>
<!-- Generator: Adobe Illustrator 17.0.0, SVG Export Plug-In . SVG Version: 6.00 Build 0)  -->
<!DOCTYPE svg PUBLIC "-//W3C//DTD SVG 1.1//EN" "http://www.w3.org/Graphics/SVG/1.1/DTD/svg11.dtd">
<svg version="1.1" id="Layer_1" xmlns="http://www.w3.org/2000/svg" xmlns:xlink="http://www.w3.org/1999/xlink" x="0px" y="0px"
	 width="164px" height="55px" viewBox="0 0 164 55" enable-background="new 0 0 164 55" xml:space="preserve">
<linearGradient id="SVGID_1_" gradientUnits="userSpaceOnUse" x1="2" y1="27.5" x2="67.781" y2="27.5">
	<stop  offset="0" style="stop-color:#4776E6"/>
	<stop  offset="1" style="stop-color:#8E54E9"/>
</linearGradient>
<polygon fill="url(#SVGID_1_)" points="34.875,2.549 47.793,14.406 43.445,18.753 35.066,10.467 25.306,20.174 34.731,29.334 
	48.836,15.513 67.781,33.66 49.148,51.813 36.81,39.786 41.123,35.474 48.862,43.213 59.445,33.791 49.827,24.173 35.431,38.728 
	20.655,24.632 11.43,33.857 21.1,43.528 29.423,35.361 33.926,39.729 21.202,52.451 2,33.942 "/>
<g>
	<g>
		<path fill="#4776E6" d="M77.633,23.663c0.845-0.38,1.85-0.682,3.013-0.903c1.163-0.223,2.379-0.333,3.648-0.333
			c1.099,0,2.019,0.132,2.759,0.396s1.327,0.64,1.761,1.126c0.433,0.486,0.739,1.067,0.919,1.744s0.271,1.438,0.271,2.283
			c0,0.931-0.032,1.866-0.096,2.807c-0.063,0.941-0.101,1.866-0.111,2.775s0.017,1.792,0.08,2.648s0.222,1.665,0.476,2.426h-3.362
			l-0.666-2.188h-0.158c-0.424,0.655-1.01,1.221-1.761,1.696c-0.75,0.476-1.718,0.714-2.902,0.714c-0.74,0-1.406-0.111-1.998-0.333
			c-0.592-0.223-1.1-0.539-1.522-0.952c-0.423-0.412-0.751-0.898-0.983-1.458c-0.233-0.561-0.349-1.189-0.349-1.888
			c0-0.972,0.216-1.792,0.65-2.458s1.057-1.205,1.872-1.617c0.813-0.412,1.787-0.698,2.918-0.856s2.395-0.206,3.791-0.143
			c0.147-1.184,0.063-2.035-0.254-2.554c-0.317-0.518-1.026-0.776-2.125-0.776c-0.825,0-1.697,0.085-2.617,0.254
			c-0.919,0.169-1.676,0.391-2.268,0.666L77.633,23.663z M82.866,35.462c0.825,0,1.479-0.186,1.967-0.556
			c0.486-0.369,0.845-0.766,1.078-1.188v-2.062c-0.655-0.063-1.284-0.074-1.887-0.032c-0.603,0.043-1.137,0.138-1.602,0.285
			c-0.465,0.148-0.836,0.36-1.11,0.635c-0.275,0.275-0.412,0.624-0.412,1.047c0,0.592,0.174,1.052,0.523,1.379
			C81.772,35.298,82.252,35.462,82.866,35.462z"/>
	</g>
	<g>
		<path fill="#4776E6" d="M100.785,34.033c0-0.423-0.18-0.761-0.539-1.015s-0.804-0.486-1.332-0.698
			c-0.528-0.211-1.109-0.428-1.744-0.649c-0.635-0.223-1.216-0.528-1.744-0.92c-0.529-0.392-0.973-0.889-1.332-1.491
			s-0.539-1.379-0.539-2.331c0-1.564,0.465-2.759,1.395-3.584c0.931-0.824,2.273-1.236,4.028-1.236c1.206,0,2.294,0.127,3.267,0.381
			c0.973,0.253,1.734,0.539,2.283,0.855l-0.919,2.981c-0.487-0.19-1.1-0.391-1.84-0.603c-0.74-0.211-1.49-0.317-2.251-0.317
			c-1.227,0-1.84,0.477-1.84,1.428c0,0.381,0.18,0.688,0.539,0.92s0.803,0.449,1.332,0.65c0.528,0.201,1.109,0.417,1.744,0.649
			c0.635,0.233,1.216,0.534,1.744,0.904s0.973,0.852,1.332,1.443s0.539,1.353,0.539,2.283c0,1.607-0.513,2.87-1.537,3.79
			c-1.026,0.92-2.564,1.38-4.615,1.38c-1.121,0-2.173-0.143-3.156-0.429c-0.982-0.285-1.781-0.618-2.395-0.999l1.143-3.076
			c0.486,0.275,1.131,0.545,1.934,0.809c0.805,0.265,1.629,0.396,2.475,0.396c0.613,0,1.104-0.116,1.475-0.349
			C100.6,34.974,100.785,34.583,100.785,34.033z"/>
	</g>
	<g>
		<path fill="#4776E6" d="M114.962,34.033c0-0.423-0.181-0.761-0.539-1.015c-0.36-0.254-0.805-0.486-1.332-0.698
			c-0.529-0.211-1.11-0.428-1.745-0.649c-0.634-0.223-1.216-0.528-1.744-0.92s-0.973-0.889-1.332-1.491s-0.539-1.379-0.539-2.331
			c0-1.564,0.465-2.759,1.396-3.584c0.93-0.824,2.272-1.236,4.027-1.236c1.206,0,2.294,0.127,3.268,0.381
			c0.972,0.253,1.733,0.539,2.283,0.855l-0.92,2.981c-0.486-0.19-1.1-0.391-1.84-0.603c-0.74-0.211-1.49-0.317-2.251-0.317
			c-1.227,0-1.84,0.477-1.84,1.428c0,0.381,0.18,0.688,0.539,0.92s0.804,0.449,1.332,0.65s1.11,0.417,1.744,0.649
			c0.635,0.233,1.216,0.534,1.745,0.904c0.527,0.37,0.972,0.852,1.332,1.443c0.358,0.592,0.539,1.353,0.539,2.283
			c0,1.607-0.514,2.87-1.538,3.79c-1.026,0.92-2.564,1.38-4.615,1.38c-1.121,0-2.173-0.143-3.155-0.429
			c-0.983-0.285-1.782-0.618-2.395-0.999l1.142-3.076c0.486,0.275,1.131,0.545,1.935,0.809c0.804,0.265,1.628,0.396,2.474,0.396
			c0.613,0,1.104-0.116,1.475-0.349S114.962,34.583,114.962,34.033z"/>
	</g>
	<g>
		<path fill="#4776E6" d="M122.289,18.365c0-0.612,0.227-1.136,0.682-1.569c0.454-0.434,1.083-0.65,1.887-0.65
			s1.454,0.217,1.951,0.65c0.496,0.434,0.745,0.957,0.745,1.569c0,0.613-0.249,1.126-0.745,1.538
			c-0.497,0.413-1.147,0.619-1.951,0.619s-1.433-0.206-1.887-0.619C122.516,19.491,122.289,18.978,122.289,18.365z M122.892,22.837
			h4.123v15.857h-4.123V22.837z"/>
		<path fill="#4776E6" d="M136.561,31.146l0.539,2.442h0.158l0.444-2.505l2.696-8.246h4.439l-6.628,16.016h-2.506l-6.882-16.016
			h4.789L136.561,31.146z"/>
	</g>
	<g>
		<path fill="#4776E6" d="M147.026,30.48c0-2.686,0.655-4.752,1.967-6.2c1.311-1.448,3.149-2.173,5.519-2.173
			c1.269,0,2.367,0.201,3.298,0.603s1.702,0.967,2.315,1.696s1.073,1.613,1.38,2.648c0.306,1.036,0.46,2.178,0.46,3.426
			c0,2.686-0.65,4.752-1.951,6.2c-1.3,1.448-3.135,2.173-5.502,2.173c-1.27,0-2.369-0.201-3.299-0.603
			c-0.931-0.401-1.708-0.968-2.331-1.697c-0.624-0.729-1.089-1.612-1.396-2.648C147.18,32.87,147.026,31.729,147.026,30.48z
			 M151.276,30.48c0,0.697,0.063,1.343,0.19,1.935s0.317,1.11,0.57,1.554c0.254,0.444,0.587,0.788,0.999,1.031
			c0.413,0.243,0.904,0.364,1.476,0.364c1.078,0,1.881-0.391,2.41-1.173c0.528-0.782,0.793-2.02,0.793-3.711
			c0-1.459-0.243-2.638-0.729-3.536c-0.487-0.898-1.312-1.349-2.474-1.349c-1.016,0-1.809,0.381-2.379,1.142
			C151.562,27.5,151.276,28.747,151.276,30.48z"/>
	</g>
</g>
</svg>
