<?xml version="1.0" encoding="utf-8"?>
<!-- Generator: Adobe Illustrator 17.0.0, SVG Export Plug-In . SVG Version: 6.00 Build 0)  -->
<!DOCTYPE svg PUBLIC "-//W3C//DTD SVG 1.1//EN" "http://www.w3.org/Graphics/SVG/1.1/DTD/svg11.dtd">
<svg version="1.1" id="Layer_1" xmlns="http://www.w3.org/2000/svg" xmlns:xlink="http://www.w3.org/1999/xlink" x="0px" y="0px"
	 width="100px" height="28px" viewBox="0 0 100 28" enable-background="new 0 0 100 28" xml:space="preserve">
<g>
	
		<rect x="5.433" y="17.038" fill="#5171B7" stroke="#5170B6" stroke-width="0.75" stroke-miterlimit="10" width="3.982" height="8.962"/>
	
		<rect x="11.443" y="14.028" fill="none" stroke="#808285" stroke-width="0.75" stroke-miterlimit="10" width="3.982" height="11.972"/>
	
		<rect x="17.453" y="10.028" fill="none" stroke="#808285" stroke-width="0.75" stroke-miterlimit="10" width="3.982" height="15.972"/>
	<rect x="23.463" y="6" fill="none" stroke="#808285" stroke-width="0.75" stroke-miterlimit="10" width="3.982" height="20"/>
	<rect x="29.473" y="2" fill="none" stroke="#808285" stroke-width="0.75" stroke-miterlimit="10" width="3.982" height="24"/>
	<g>
		<path fill="#212529" d="M49.991,19.109h-6.624V7.91h1.328v10.016h5.296V19.109z"/>
		<path fill="#212529" d="M50.119,15.109c0-1.354,0.302-2.392,0.904-3.111c0.603-0.72,1.469-1.08,2.6-1.08
			c0.598,0,1.117,0.099,1.56,0.296s0.809,0.48,1.097,0.848c0.288,0.368,0.501,0.811,0.64,1.328c0.139,0.518,0.208,1.091,0.208,1.72
			c0,1.355-0.302,2.393-0.904,3.112s-1.469,1.08-2.6,1.08c-0.598,0-1.117-0.1-1.56-0.296c-0.443-0.197-0.809-0.48-1.097-0.849
			c-0.287-0.367-0.501-0.811-0.64-1.327C50.188,16.313,50.119,15.739,50.119,15.109z M51.447,15.109c0,0.405,0.04,0.795,0.12,1.168
			c0.08,0.374,0.205,0.699,0.376,0.977c0.17,0.277,0.395,0.501,0.672,0.672s0.613,0.256,1.008,0.256
			c1.45,0.011,2.176-1.014,2.176-3.072c0-0.416-0.04-0.81-0.12-1.184c-0.08-0.373-0.205-0.698-0.376-0.976
			c-0.171-0.277-0.395-0.499-0.672-0.664c-0.277-0.165-0.613-0.248-1.008-0.248C52.172,12.027,51.447,13.051,51.447,15.109z"/>
		<path fill="#212529" d="M64.151,11.11l1.84,4.671l0.4,1.536h0.032l0.304-1.567l1.424-4.64h1.216l-2.688,8.175h-0.624l-2.097-5.279
			l-0.304-1.312h-0.048l-0.32,1.328l-2.016,5.263h-0.624l-2.784-8.175h1.392l1.584,4.656l0.272,1.552h0.016l0.385-1.584l1.712-4.624
			H64.151z"/>
	</g>
</g>
</svg>
