<?xml version="1.0" encoding="utf-8"?>
<!-- Generator: Adobe Illustrator 17.0.0, SVG Export Plug-In . SVG Version: 6.00 Build 0)  -->
<!DOCTYPE svg PUBLIC "-//W3C//DTD SVG 1.1//EN" "http://www.w3.org/Graphics/SVG/1.1/DTD/svg11.dtd">
<svg version="1.1" id="Layer_1" xmlns="http://www.w3.org/2000/svg" xmlns:xlink="http://www.w3.org/1999/xlink" x="0px" y="0px"
	 width="100px" height="28px" viewBox="0 0 100 28" enable-background="new 0 0 100 28" xml:space="preserve">
<g>
	
		<rect x="5.499" y="17.043" fill="#5171B7" stroke="#5170B6" stroke-width="0.75" stroke-miterlimit="10" width="3.982" height="8.962"/>
	
		<rect x="11.509" y="14.033" fill="#5170B6" stroke="#5170B6" stroke-width="0.75" stroke-miterlimit="10" width="3.982" height="11.972"/>
	
		<rect x="17.519" y="10.033" fill="#5170B6" stroke="#5170B6" stroke-width="0.75" stroke-miterlimit="10" width="3.982" height="15.972"/>
	<rect x="23.529" y="6.005" fill="none" stroke="#808285" stroke-width="0.75" stroke-miterlimit="10" width="3.982" height="20"/>
	<rect x="29.539" y="1.995" fill="none" stroke="#808285" stroke-width="0.75" stroke-miterlimit="10" width="3.982" height="24"/>
	<g>
		<path fill="#212529" d="M52.037,11.555l0.16-1.68h-0.08l-0.608,1.536l-2.912,5.056h-0.399l-3.088-5.072l-0.576-1.52h-0.08
			l0.224,1.664v7.536h-1.248v-11.2h0.992l3.504,5.728l0.528,1.248h0.032l0.496-1.28l3.344-5.696h1.04v11.2h-1.328V11.555z"/>
		<path fill="#212529" d="M61.797,18.434c-0.32,0.257-0.723,0.459-1.208,0.608s-1,0.225-1.544,0.225c-0.608,0-1.137-0.1-1.584-0.296
			c-0.448-0.197-0.816-0.48-1.104-0.849c-0.288-0.367-0.501-0.808-0.64-1.319c-0.139-0.513-0.208-1.088-0.208-1.729
			c0-1.365,0.304-2.405,0.912-3.12c0.607-0.714,1.477-1.072,2.607-1.072c0.362,0,0.726,0.04,1.088,0.12
			c0.363,0.08,0.688,0.232,0.977,0.456c0.288,0.224,0.522,0.542,0.704,0.952c0.181,0.411,0.271,0.952,0.271,1.624
			c0,0.352-0.032,0.742-0.096,1.167h-5.136c0,0.47,0.048,0.886,0.144,1.248c0.096,0.363,0.245,0.67,0.448,0.92
			c0.202,0.251,0.467,0.443,0.792,0.576c0.325,0.134,0.723,0.2,1.192,0.2c0.362,0,0.725-0.064,1.088-0.192
			c0.362-0.128,0.634-0.277,0.815-0.447L61.797,18.434z M59.045,12.003c-0.63,0-1.134,0.165-1.513,0.496
			c-0.378,0.331-0.605,0.896-0.68,1.696h3.968c0-0.811-0.154-1.378-0.464-1.704C60.047,12.166,59.61,12.003,59.045,12.003z"/>
		<path fill="#212529" d="M70.229,16.323c0,0.544,0.005,1.038,0.016,1.48s0.059,0.877,0.145,1.304h-0.864l-0.32-1.136h-0.063
			c-0.214,0.373-0.522,0.682-0.928,0.928c-0.406,0.245-0.88,0.368-1.425,0.368c-1.066,0-1.858-0.337-2.376-1.008
			c-0.517-0.672-0.775-1.723-0.775-3.152c0-1.365,0.322-2.402,0.968-3.112c0.646-0.709,1.533-1.064,2.664-1.064
			c0.395,0,0.706,0.021,0.936,0.064c0.229,0.043,0.478,0.112,0.744,0.208V7.875h1.28V16.323z M66.997,18.147
			c0.545,0,0.977-0.142,1.297-0.424c0.319-0.282,0.538-0.712,0.655-1.288v-3.968c-0.191-0.149-0.41-0.256-0.655-0.32
			c-0.246-0.064-0.571-0.096-0.977-0.096c-0.736,0-1.312,0.243-1.728,0.728s-0.624,1.261-0.624,2.328
			c0,0.438,0.034,0.843,0.104,1.216c0.069,0.374,0.185,0.693,0.344,0.96c0.16,0.267,0.371,0.478,0.633,0.632
			C66.306,18.07,66.623,18.147,66.997,18.147z"/>
		<path fill="#212529" d="M72.694,8.643c0-0.245,0.082-0.456,0.248-0.632c0.165-0.176,0.376-0.264,0.632-0.264
			s0.475,0.088,0.655,0.264c0.182,0.176,0.272,0.387,0.272,0.632c0,0.246-0.091,0.448-0.272,0.608
			c-0.181,0.16-0.399,0.24-0.655,0.24s-0.467-0.08-0.632-0.24C72.776,9.091,72.694,8.888,72.694,8.643z M72.965,11.075h1.28v8h-1.28
			V11.075z"/>
		<path fill="#212529" d="M78.133,11.075v4.56c0,0.416,0.024,0.781,0.072,1.096s0.131,0.576,0.248,0.784s0.277,0.365,0.479,0.472
			c0.203,0.106,0.459,0.16,0.769,0.16c0.288,0,0.544-0.045,0.768-0.136c0.225-0.091,0.424-0.216,0.601-0.376
			c0.176-0.16,0.33-0.345,0.464-0.553c0.133-0.208,0.242-0.429,0.328-0.663v-5.344h1.279v5.728c0,0.384,0.014,0.781,0.04,1.191
			c0.027,0.41,0.072,0.771,0.137,1.08h-0.88l-0.32-1.264h-0.08c-0.245,0.416-0.576,0.762-0.992,1.039
			c-0.416,0.278-0.944,0.417-1.584,0.417c-0.427,0-0.803-0.051-1.128-0.152c-0.325-0.101-0.598-0.28-0.816-0.536
			s-0.384-0.6-0.495-1.031c-0.112-0.433-0.169-0.979-0.169-1.641v-4.832H78.133z"/>
		<path fill="#212529" d="M90.293,19.074v-4.527c0-0.427-0.019-0.797-0.056-1.112c-0.038-0.314-0.109-0.578-0.216-0.792
			c-0.107-0.213-0.259-0.373-0.456-0.48c-0.198-0.106-0.456-0.16-0.776-0.16c-0.491,0-0.898,0.149-1.224,0.448
			c-0.326,0.299-0.553,0.672-0.681,1.12v5.503h-1.279v-8h0.896l0.24,0.976h0.063c0.288-0.341,0.622-0.621,1-0.84
			c0.379-0.219,0.872-0.328,1.48-0.328c0.512,0,0.931,0.099,1.256,0.296s0.578,0.542,0.76,1.032
			c0.245-0.416,0.584-0.742,1.017-0.976c0.432-0.235,0.92-0.352,1.464-0.352c0.448,0,0.826,0.051,1.136,0.152
			c0.31,0.102,0.565,0.28,0.768,0.536c0.203,0.256,0.35,0.603,0.44,1.04s0.136,0.992,0.136,1.664v4.799h-1.279v-4.815
			c0-0.384-0.02-0.717-0.057-1s-0.111-0.517-0.224-0.704c-0.112-0.187-0.267-0.325-0.464-0.416c-0.198-0.09-0.456-0.136-0.776-0.136
			c-0.533,0-0.949,0.149-1.248,0.448c-0.299,0.299-0.512,0.726-0.64,1.28v5.344H90.293z"/>
	</g>
</g>
</svg>
