<?xml version="1.0" encoding="utf-8"?>
<!-- Generator: Adobe Illustrator 17.0.0, SVG Export Plug-In . SVG Version: 6.00 Build 0)  -->
<!DOCTYPE svg PUBLIC "-//W3C//DTD SVG 1.1//EN" "http://www.w3.org/Graphics/SVG/1.1/DTD/svg11.dtd">
<svg version="1.1" id="Layer_1" xmlns="http://www.w3.org/2000/svg" xmlns:xlink="http://www.w3.org/1999/xlink" x="0px" y="0px"
	 width="36px" height="37px" viewBox="473.833 129.135 36 37" enable-background="new 473.833 129.135 36 37" xml:space="preserve">
<g>
	<g>
		<path fill="#C0C0C0" d="M499.005,152.264c-0.025-0.003-3.593,0.103-4.124-3.721c0.59-0.411,1.133-0.945,1.612-1.593
			c0.931-1.261,1.531-2.842,1.745-4.552c0.073-0.066,0.134-0.149,0.175-0.246c0.387-0.921,0.583-1.905,0.583-2.924
			c0-3.911-2.95-7.092-6.576-7.092c-0.948,0-1.868,0.218-2.737,0.65c-0.332,0.025-0.656,0.084-0.968,0.174
			c-1.489,0.43-2.701,1.535-3.413,3.109c-0.691,1.529-0.827,3.329-0.383,5.068c0.094,0.367,0.213,0.729,0.354,1.074
			c0.038,0.093,0.095,0.173,0.164,0.238c0.346,2.67,1.617,4.882,3.349,6.09c-0.532,3.83-4.099,3.724-4.124,3.727
			c-2.566,0.087-4.627,2.2-4.627,4.787v5.385c0,0.385,0.312,0.698,0.698,0.698h6.129h9.943h6.129c0.385,0,0.698-0.312,0.698-0.698
			v-5.385C503.632,154.465,501.571,152.351,499.005,152.264z M489.102,134.3c0.255-0.074,0.524-0.117,0.8-0.13
			c0.102-0.005,0.202-0.032,0.293-0.079c0.707-0.371,1.455-0.56,2.225-0.56c2.856,0,5.18,2.555,5.18,5.696
			c0,0.094-0.003,0.188-0.007,0.281c-0.554-0.563-1.324-0.912-2.174-0.912h-4.757c-0.283,0-0.552-0.089-0.777-0.257
			c-0.192-0.144-0.341-0.337-0.43-0.558c-0.138-0.343-0.477-0.557-0.846-0.534c-0.371,0.024-0.682,0.281-0.776,0.641
			c-0.276,1.059-0.825,2.035-1.58,2.826C485.552,137.826,486.819,134.959,489.102,134.3z M488.495,146.372
			c-0.908-1.11-1.503-2.608-1.692-4.248c0.881-0.785,1.577-1.762,2.03-2.845c0.069,0.063,0.141,0.123,0.216,0.18
			c0.468,0.35,1.026,0.534,1.612,0.534h4.757c0.673,0,1.253,0.404,1.512,0.982c0,0.005-0.001,0.01-0.001,0.015
			c0,3.94-2.286,7.146-5.096,7.146C490.611,148.134,489.425,147.508,488.495,146.372z M490.099,149.223
			c0.553,0.2,1.135,0.307,1.736,0.307c0.595,0,1.177-0.104,1.734-0.304c0.256,1.331,0.996,2.492,2.03,3.291l-3.665,5.22
			c-0.024,0.034-0.057,0.051-0.099,0.051c-0.042,0-0.075-0.017-0.099-0.051l-3.666-5.221
			C489.104,151.717,489.844,150.555,490.099,149.223z M502.236,161.739h-5.431h-9.943h-5.431v-4.687
			c0-1.872,1.523-3.395,3.395-3.395c0.025,0,1.149-0.027,2.036-0.431l3.731,5.314c0.284,0.404,0.748,0.645,1.241,0.645h0
			c0.493,0,0.958-0.241,1.241-0.645l3.731-5.313c1.012,0.43,2.009,0.43,2.034,0.43c1.872,0,3.395,1.523,3.395,3.395V161.739
			L502.236,161.739z"/>
	</g>
</g>
</svg>
