<?xml version="1.0" encoding="utf-8"?>
<!-- Generator: Adobe Illustrator 17.0.0, SVG Export Plug-In . SVG Version: 6.00 Build 0)  -->
<!DOCTYPE svg PUBLIC "-//W3C//DTD SVG 1.1//EN" "http://www.w3.org/Graphics/SVG/1.1/DTD/svg11.dtd">
<svg version="1.1" id="Layer_1" xmlns="http://www.w3.org/2000/svg" xmlns:xlink="http://www.w3.org/1999/xlink" x="0px" y="0px"
	 width="100px" height="28px" viewBox="0 0 100 28" enable-background="new 0 0 100 28" xml:space="preserve">
<g>
	<path fill="#212629" d="M37.886,19.161V8.372h1.521l3.457,5.458c0.801,1.265,1.425,2.402,1.937,3.505l0.032-0.016
		c-0.128-1.44-0.16-2.753-0.16-4.434V8.372h1.313v10.789h-1.408l-3.426-5.475c-0.752-1.201-1.473-2.433-2.017-3.602l-0.049,0.017
		c0.08,1.36,0.112,2.657,0.112,4.45v4.61H37.886z"/>
	<path fill="#212629" d="M47.182,19.802l4.466-11.605h1.088l-4.481,11.605H47.182z"/>
	<path fill="#212629" d="M55.646,15.769l-1.12,3.394h-1.44l3.665-10.789h1.681l3.682,10.789h-1.488l-1.152-3.394H55.646z
		 M59.184,14.679l-1.057-3.105c-0.24-0.705-0.4-1.345-0.561-1.969h-0.032c-0.16,0.64-0.336,1.296-0.544,1.953l-1.057,3.121H59.184z"
		/>
</g>
</svg>
