<?xml version="1.0" encoding="utf-8"?>
<!-- Generator: Adobe Illustrator 17.0.0, SVG Export Plug-In . SVG Version: 6.00 Build 0)  -->
<!DOCTYPE svg PUBLIC "-//W3C//DTD SVG 1.1//EN" "http://www.w3.org/Graphics/SVG/1.1/DTD/svg11.dtd">
<svg version="1.1" id="Layer_1" xmlns="http://www.w3.org/2000/svg" xmlns:xlink="http://www.w3.org/1999/xlink" x="0px" y="0px"
	 width="65px" height="65px" viewBox="0 0 65 65" enable-background="new 0 0 65 65" xml:space="preserve">
<g>
	<g>
		<g>
			<path fill="#4775E5" d="M16.23,19.283c-2.108-2.108-11.069-2.635-13.968-2.899c-0.264,0-0.527,0-0.791,0.264
				c-0.264,0.264-0.527,0.791-0.527,1.054V41.42c0,0.791,0.527,1.318,1.318,1.318h7.906c0.527,0,1.054-0.264,1.318-0.791
				c0-0.791,4.744-14.758,5.271-21.61C16.757,20.073,16.757,19.546,16.23,19.283z"/>
		</g>
	</g>
</g>
<g>
	<g>
		<g>
			<path fill="#4775E5" d="M44.429,25.608c-2.635-0.791-5.007-1.845-7.116-2.635c-4.744-2.108-6.852-1.054-11.069,3.163
				c-1.845,1.845-3.163,4.48-2.899,5.534c0,0.264,0,0.264,0.527,0.527c1.318,0.527,3.163,0.791,5.007-2.108
				c0.264-0.264,0.527-0.527,1.054-0.527c0.791,0,1.054-0.264,1.845-0.527c0.527-0.264,1.054-0.527,1.845-0.791
				c0.264,0,0.264,0,0.527,0c0.264,0,0.791,0.264,1.054,0.264c1.318,1.318,3.69,3.163,6.062,5.271
				c3.69,2.899,7.379,6.062,9.224,8.433h0.264C48.91,36.94,45.747,27.98,44.429,25.608z"/>
		</g>
	</g>
</g>
<g>
	<g>
		<g>
			<path fill="#4775E5" d="M62.877,19.019c-10.278,0-16.076,2.635-16.34,2.635c-0.264,0.264-0.527,0.527-0.791,0.791
				c0,0.264,0,0.791,0.264,1.054c1.581,2.635,6.852,17.13,7.643,20.82c0.264,0.527,0.791,1.054,1.318,1.054h7.906
				c0.791,0,1.318-0.527,1.318-1.318V20.337C64.195,19.546,63.668,19.019,62.877,19.019z"/>
		</g>
	</g>
</g>
<g>
	<g>
		<g>
			<path fill="#4775E5" d="M48.646,44.847c-1.054-2.372-5.534-5.798-9.488-8.96c-2.108-1.845-4.217-3.426-5.798-4.744
				c-0.264,0.264-0.791,0.264-0.791,0.527c-0.791,0.264-1.054,0.527-2.108,0.527c-2.108,2.635-4.744,3.69-7.643,2.635
				c-1.318-0.264-2.108-1.318-2.372-2.372c-0.527-2.635,1.845-6.325,3.69-8.17h-5.271c-1.054,5.271-2.899,12.123-4.217,15.813
				c1.054,1.054,2.108,2.372,2.899,2.899c5.007,4.217,10.805,8.433,11.859,9.224c0.791,0.527,2.372,1.054,3.163,1.054
				c0.264,0,0.527,0,0.791,0l-4.217-4.217c-0.527-0.527-0.527-1.318,0-1.845c0.527-0.527,1.318-0.527,1.845,0l5.271,5.271
				c0.527,0.527,1.054,0.264,1.581,0.264c0.791-0.264,1.054-0.791,1.318-1.581l-6.062-6.062c-0.527-0.527-0.527-1.318,0-1.845
				c0.527-0.527,1.318-0.527,1.845,0l6.589,6.589c0.264,0.264,1.318,0.264,2.108,0c0.264-0.264,0.791-0.527,1.054-1.054
				l-7.379-7.379c-0.527-0.527-0.527-1.318,0-1.845c0.527-0.527,1.318-0.527,1.845,0l7.643,7.643c0.527,0.264,1.054,0,1.581-0.264
				C48.646,46.691,49.173,45.901,48.646,44.847z"/>
		</g>
	</g>
</g>
</svg>
