<?xml version="1.0" encoding="utf-8"?>
<!-- Generator: Adobe Illustrator 17.0.0, SVG Export Plug-In . SVG Version: 6.00 Build 0)  -->
<!DOCTYPE svg PUBLIC "-//W3C//DTD SVG 1.1//EN" "http://www.w3.org/Graphics/SVG/1.1/DTD/svg11.dtd">
<svg version="1.1" id="Layer_1" xmlns="http://www.w3.org/2000/svg" xmlns:xlink="http://www.w3.org/1999/xlink" x="0px" y="0px"
	 width="36px" height="37px" viewBox="594.902 129.135 36 37" enable-background="new 594.902 129.135 36 37" xml:space="preserve">
<g>
	<path fill="#C0C0C0" stroke="#C0C0C0" stroke-width="0.5" stroke-miterlimit="10" d="M625.021,155.476
		c-0.077-0.583-0.414-1.086-0.924-1.38l-5.988-3.447c-0.733-0.422-1.664-0.299-2.262,0.299l-1.179,1.179
		c-0.314,0.314-0.81,0.342-1.155,0.065c-0.93-0.748-1.845-1.571-2.721-2.447c-0.876-0.876-1.699-1.791-2.447-2.721
		c-0.277-0.344-0.249-0.841,0.065-1.155l1.179-1.179c0.599-0.598,0.722-1.529,0.299-2.262l-3.447-5.988
		c-0.294-0.51-0.796-0.846-1.38-0.924c-0.583-0.077-1.156,0.117-1.572,0.533l-1.777,1.777c-1.24,1.24-1.26,3.509-0.056,6.389
		c1.158,2.769,3.319,5.816,6.084,8.582c2.766,2.765,5.813,4.926,8.582,6.084c1.417,0.593,2.687,0.889,3.758,0.889
		c1.105,0,2-0.315,2.63-0.945l1.777-1.777C624.904,156.632,625.098,156.059,625.021,155.476L625.021,155.476z M617.717,151.33
		l5.988,3.447c0.296,0.17,0.492,0.463,0.536,0.801c0.038,0.284-0.036,0.564-0.204,0.79l-7.957-4.541l0.323-0.323
		C616.751,151.156,617.292,151.085,617.717,151.33L617.717,151.33z M604.958,136.296c0.339,0.045,0.631,0.24,0.801,0.536
		l3.447,5.988c0.245,0.426,0.174,0.966-0.174,1.314l-0.297,0.297l-4.566-7.931c0.187-0.138,0.41-0.213,0.643-0.213
		C604.861,136.286,604.91,136.289,604.958,136.296L604.958,136.296z M622.155,158.269c-0.985,0.985-3.001,0.944-5.529-0.113
		c-2.676-1.119-5.635-3.22-8.329-5.915c-2.695-2.695-4.795-5.653-5.915-8.329c-1.057-2.529-1.099-4.544-0.113-5.529l1.319-1.319
		l4.573,7.943l-0.307,0.307c-0.598,0.598-0.65,1.546-0.121,2.204c0.766,0.952,1.608,1.888,2.504,2.784
		c0.896,0.896,1.832,1.738,2.784,2.504c0.658,0.529,1.605,0.477,2.204-0.121l0.28-0.28l7.968,4.548L622.155,158.269L622.155,158.269
		z"/>
</g>
</svg>
